<svg width="50" height="50" viewBox="0 0 50 50" fill="none" xmlns="http://www.w3.org/2000/svg">
<path d="M42.3403 1.93038C42.9916 1.28315 43.6224 0.614305 44.3046 0C44.5546 1.66902 44.7501 3.34627 44.9909 5.01734C46.661 5.23549 48.33 5.46804 50 5.68618C49.2509 6.54333 48.4 7.30684 47.6076 8.12385C46.3266 9.41523 45.03 10.6912 43.7551 11.9887C43.6111 12.1256 43.4783 12.2892 43.29 12.3653C42.6006 12.3087 41.9194 12.1729 41.231 12.105C40.0209 13.2369 38.8818 14.4439 37.6995 15.6046C34.4366 18.8757 31.1531 22.1284 27.9067 25.4139C28.2143 26.5962 28.0939 27.8897 27.4868 28.9588C26.7892 30.2728 25.4309 31.1948 23.9626 31.3985C23.161 31.4983 22.3326 31.4078 21.5815 31.1042C20.0843 30.5239 18.9277 29.1337 18.6468 27.5501C18.4853 26.6178 18.5727 25.6321 18.9751 24.7698C19.6007 23.3138 21.0073 22.2271 22.5755 21.9936C23.2453 21.8732 23.9286 21.9565 24.5882 22.0975C28.166 18.5588 31.7036 14.9779 35.2701 11.4269C36.1365 10.5296 37.0595 9.68894 37.8981 8.76594C37.8168 8.10945 37.7098 7.45604 37.6584 6.79749C37.6224 6.60095 37.8024 6.48262 37.9146 6.35194C39.3912 4.88049 40.8637 3.40389 42.3403 1.93038Z" fill="#246DCE"/>
<path d="M15.1194 4.86206C20.6255 2.7691 26.9311 2.89464 32.3508 5.19648C33.209 5.55148 34.0435 5.96102 34.8513 6.41995C33.6535 7.69589 32.3848 8.90907 31.149 10.148C29.6034 9.4709 27.9951 8.91524 26.322 8.66005C23.4532 8.19392 20.4691 8.3956 17.7022 9.29494C14.4516 10.326 11.5282 12.315 9.3334 14.9204C6.87618 17.8283 5.36254 21.5255 5.10118 25.3255C4.84908 28.6296 5.50763 32.0057 7.01921 34.9568C8.82508 38.5295 11.839 41.4714 15.4538 43.1908C19.2631 45.0131 23.7156 45.4546 27.8068 44.403C31.1644 43.5746 34.2534 41.7389 36.618 39.2199C38.8355 36.8697 40.4242 33.9258 41.1332 30.7709C41.7846 27.9711 41.7321 25.0199 41.0447 22.2314C40.772 21.0624 40.3203 19.9491 39.8501 18.8481C41.0746 17.6071 42.3052 16.3713 43.539 15.1396C44.2336 16.2138 44.709 17.4178 45.1823 18.6032C46.7217 22.7932 47.0324 27.4247 46.0538 31.7814C45.1401 35.9406 43.0338 39.8219 40.0723 42.879C37.4556 45.5883 34.1824 47.6689 30.5964 48.8327C26.4177 50.2147 21.8469 50.369 17.5828 49.2834C13.7714 48.3224 10.2163 46.3673 7.35672 43.6713C3.43628 40.0133 0.84426 34.962 0.194969 29.637C-0.650859 23.2892 1.28467 16.6213 5.43148 11.7367C7.99675 8.66211 11.3605 6.25017 15.1194 4.86206Z" fill="#246DCE"/>
<path d="M17.8698 13.9849C20.9445 12.6739 24.5109 12.4877 27.674 13.5969C26.5349 14.8245 25.3063 15.9698 24.1405 17.1737C23.9923 17.3013 23.8709 17.5153 23.6486 17.4927C23.0302 17.5215 22.4066 17.4875 21.7965 17.61C19.7333 17.9362 17.8071 19.0125 16.4303 20.5786C15.1605 22.0007 14.3528 23.8333 14.1717 25.7318C13.9237 27.9102 14.5102 30.1719 15.7738 31.9633C16.8779 33.5295 18.4687 34.7601 20.288 35.3775C22.4653 36.1513 24.941 36.0515 27.0474 35.1007C30.0304 33.8207 32.1985 30.8314 32.4701 27.5943C32.5113 27.124 32.4866 26.6507 32.5319 26.1815C33.4106 25.2121 34.3851 24.3303 35.2916 23.3867C35.6569 23.0235 35.9996 22.6356 36.407 22.3176C37.6799 25.9448 37.2539 30.105 35.3647 33.444C33.5773 36.6432 30.4729 39.087 26.9229 40.0193C23.9625 40.8311 20.7325 40.6068 17.912 39.3947C15.5876 38.4171 13.5532 36.7749 12.0859 34.7262C10.4972 32.5046 9.58032 29.8025 9.52373 27.0705C9.44861 25.0825 9.84169 23.0811 10.6237 21.2547C11.982 18.0195 14.6471 15.3637 17.8698 13.9849Z" fill="#246DCE"/>
</svg>
