<svg width="41" height="54" viewBox="0 0 41 54" fill="none" xmlns="http://www.w3.org/2000/svg">
<path fill-rule="evenodd" clip-rule="evenodd" d="M19.4913 0.110283C18.9907 0.254248 18.4303 0.593646 17.7816 1.14567C17.2399 1.60678 16.5761 1.66774 15.7935 1.32824C15.3567 1.13881 15.031 1.07996 14.4288 1.08165C13.083 1.08534 12.1568 1.67386 11.4177 2.99475C10.9428 3.84345 10.4846 4.08529 9.35176 4.08529C8.33019 4.08529 7.70413 4.30467 7.05191 4.89108C6.44662 5.43529 6.04837 6.20279 5.93784 7.03842C5.80326 8.05598 5.46376 8.46415 4.48237 8.78857C2.63034 9.40082 1.80632 10.8979 2.19455 12.9451C2.36182 13.8274 2.21142 14.1855 1.35354 14.946C0.363715 15.8237 0.0323317 16.4887 0.0323317 17.5984C0.0323317 18.3441 0.0667145 18.4692 0.506941 19.3256C1.08596 20.452 1.1136 20.8953 0.652382 21.66C0.202874 22.4054 0.0939254 22.6933 0.0185152 23.3352C-0.109735 24.4261 0.434906 25.5898 1.44646 26.3867C2.08127 26.8867 2.26247 27.2671 2.20214 27.974C2.17746 28.264 2.15426 28.9047 2.15067 29.3978C2.14477 30.1999 2.17693 30.3538 2.456 30.8595C2.86891 31.6079 3.43264 32.0719 4.34505 32.4142C5.50373 32.8491 5.77057 33.1701 5.98404 34.3859C6.18654 35.5389 6.78381 36.3743 7.74052 36.8424C8.21091 37.0725 8.53543 37.1414 9.41251 37.1974C10.7345 37.2818 10.898 37.3736 11.4688 38.3509C12.0949 39.4229 12.8198 39.9548 13.9356 40.1611C14.5535 40.2753 15.0914 40.195 16.0444 39.8461C16.8647 39.5457 17.2354 39.6267 18.0129 40.2763C18.8332 40.9617 19.4479 41.2239 20.2628 41.2358C21.1604 41.249 21.8521 40.991 22.6324 40.352C23.5098 39.6334 23.9288 39.5513 24.8676 39.9136C25.3592 40.1033 25.7681 40.1808 26.2989 40.185C27.5963 40.1951 28.5373 39.5992 29.3295 38.2657C29.8521 37.3862 30.0767 37.2662 31.3378 37.1926C32.5959 37.1192 33.2084 36.8802 33.85 36.2123C34.3754 35.6656 34.6599 35.0723 34.7929 34.2463C34.9744 33.1191 35.2211 32.8323 36.3404 32.4472C37.2537 32.1329 37.8979 31.5849 38.317 30.7656C38.6597 30.0953 38.7378 29.417 38.5789 28.4883C38.3866 27.3635 38.4998 27.0632 39.428 26.2384C40.2692 25.4908 40.533 25.0519 40.6764 24.1613C40.8106 23.3287 40.6975 22.8034 40.1648 21.7825C39.6342 20.7657 39.6289 20.3221 40.1378 19.5138C40.5696 18.8279 40.7271 18.2854 40.7161 17.5222C40.7011 16.4836 40.2501 15.6312 39.3307 14.9042C39.0402 14.6744 38.7252 14.3073 38.6218 14.078C38.4577 13.714 38.4505 13.5794 38.5612 12.9339C38.7253 11.9768 38.7194 11.6168 38.5291 10.976C38.2171 9.92531 37.4709 9.22437 36.1353 8.72771C35.3338 8.42966 34.9361 7.97192 34.8356 7.23196C34.65 5.86445 34.0423 4.94349 32.9724 4.40887C32.4019 4.12379 32.217 4.08508 31.4188 4.08361C30.2268 4.08129 29.8301 3.86951 29.2997 2.95214C28.7986 2.08561 28.4278 1.71299 27.721 1.36589C26.9506 0.987466 25.8528 0.968798 24.9453 1.31874C24.2727 1.57809 23.7134 1.61838 23.3603 1.43318C23.2337 1.36663 22.909 1.12869 22.6388 0.904251C21.6897 0.115662 20.5084 -0.182288 19.4913 0.110283ZM22.4991 6.76568C24.3801 7.09674 25.7913 7.58939 27.2521 8.42533C30.3268 10.1844 32.556 12.8958 33.6734 16.2349C34.2238 17.8799 34.4003 19.2003 34.3325 21.1684C34.2695 22.9931 34.0133 24.258 33.3876 25.8326C31.6747 30.1431 27.7392 33.4348 23.2074 34.3473C20.4098 34.9105 17.6297 34.6472 14.9826 33.5679C10.5864 31.7756 7.26696 27.5581 6.51244 22.806C6.30171 21.4788 6.34864 19.2057 6.61295 17.9346C6.86671 16.7145 7.34216 15.2989 7.81065 14.3685C8.73519 12.5325 10.4659 10.4952 12.1012 9.31771C13.8356 8.06906 16.0767 7.11963 18.0904 6.78044C19.2119 6.59165 21.4671 6.58406 22.4991 6.76568ZM18.7003 9.93101C14.4631 10.6559 11.1942 13.5683 9.93131 17.7435C9.665 18.6241 9.64412 18.8301 9.64264 20.5912C9.64127 22.2165 9.67386 22.6074 9.86887 23.3083C11.3251 28.5424 16.0519 31.8544 21.3898 31.3806C22.7601 31.259 23.7648 30.969 25.1339 30.2996C28.6715 28.5701 30.9484 25.1203 31.1667 21.1588C31.4481 16.0556 28.0004 11.4094 22.9891 10.1381C21.7143 9.81478 19.8935 9.72682 18.7003 9.93101ZM26.7703 15.7769C27.189 15.9997 27.6081 16.6535 27.6107 17.0877C27.6147 17.7751 27.3 18.1516 23.7316 21.7278C19.5873 25.8812 19.3727 26.0318 18.3533 25.5037C17.852 25.2439 13.424 20.7932 13.2754 20.3997C12.8706 19.3283 13.6078 18.2195 14.7258 18.2185C14.9761 18.2183 15.2846 18.2706 15.4114 18.3349C15.538 18.3991 16.4131 19.2173 17.3558 20.1532L19.07 21.8549L22.1019 18.8359C23.7696 17.1756 25.2288 15.7654 25.3448 15.7024C25.6718 15.5248 26.3645 15.561 26.7703 15.7769ZM4.52783 38.7613C4.01146 39.7333 1.0095 46.1592 0.962882 46.3927C0.797085 47.2217 1.60213 48.1712 2.47077 48.1712C2.71187 48.1712 4.47657 47.8153 6.39231 47.3802C8.30815 46.9452 9.9002 46.5892 9.93036 46.5892C9.96042 46.5892 10.7394 48.1218 11.6613 49.995C12.8146 52.3381 13.429 53.4725 13.6303 53.6308C14.2367 54.1079 15.1808 54.0367 15.7188 53.4734C15.9204 53.2623 19.5391 45.9304 20.0887 44.6194C20.1224 44.5389 19.9616 44.4706 19.6315 44.425C18.7329 44.301 17.7654 43.9692 17.0578 43.5424L16.3687 43.1268L15.7416 43.2743C13.4622 43.8105 10.7041 42.7882 9.31137 40.8909C8.99707 40.4627 8.86798 40.3665 8.60789 40.3665C7.71995 40.3665 6.1357 39.7367 5.17594 39.0021C4.6853 38.6266 4.61358 38.5999 4.52783 38.7613ZM35.5111 39.0207C34.7018 39.649 33.5998 40.1327 32.6232 40.2881C31.8293 40.4144 31.7883 40.4352 31.4398 40.8918C29.9766 42.8082 27.2282 43.8174 24.9534 43.2737C24.3613 43.1321 24.3433 43.1347 23.886 43.4246C23.1556 43.8878 22.4918 44.1476 21.5629 44.3335C21.0906 44.428 20.6874 44.5204 20.6669 44.5388C20.6233 44.5776 24.6161 52.9584 24.85 53.319C25.0564 53.6371 25.7225 53.972 26.1487 53.972C26.3344 53.972 26.6873 53.8543 26.9328 53.7105C27.3597 53.4603 27.4526 53.3 29.0719 50.019C30.0029 48.1326 30.7848 46.5892 30.8095 46.5892C30.8342 46.5892 32.4267 46.9452 34.3485 47.3802C36.2702 47.8153 38.0206 48.171 38.2383 48.1708C39.0521 48.1701 39.7402 47.4508 39.7409 46.6002C39.7412 46.2202 39.463 45.5537 38.2001 42.9088C37.3523 41.1335 36.5321 39.4302 36.3774 39.1237L36.0959 38.5665L35.5111 39.0207Z" fill="#2D88FF"/>
</svg>
