<svg width="35" height="35" viewBox="0 0 35 35" fill="none" xmlns="http://www.w3.org/2000/svg">
<path d="M17.0625 0.4375C7.64004 0.4375 0 8.07754 0 17.5C0 26.9225 7.64004 34.5625 17.0625 34.5625C26.485 34.5625 34.125 26.9225 34.125 17.5C34.125 8.07754 26.485 0.4375 17.0625 0.4375ZM17.0625 31.668C9.23965 31.668 2.89453 25.3229 2.89453 17.5C2.89453 9.67715 9.23965 3.33203 17.0625 3.33203C24.8854 3.33203 31.2305 9.67715 31.2305 17.5C31.2305 25.3229 24.8854 31.668 17.0625 31.668Z" fill="#246DCE"/>
<path d="M23.7161 22.3216L18.285 18.395V8.96875C18.285 8.80117 18.1479 8.66406 17.9804 8.66406H16.1484C15.9809 8.66406 15.8438 8.80117 15.8438 8.96875V19.4576C15.8438 19.5566 15.8895 19.648 15.9694 19.7051L22.2688 24.2983C22.4059 24.3973 22.5964 24.3668 22.6954 24.2335L23.7846 22.7482C23.8837 22.6073 23.8532 22.4168 23.7161 22.3216Z" fill="#246DCE"/>
</svg>
