<svg width="32" height="33" viewBox="0 0 32 33" fill="none" xmlns="http://www.w3.org/2000/svg">
<path fill-rule="evenodd" clip-rule="evenodd" d="M24.0356 0.0948268C23.9498 0.142513 23.7158 0.431559 23.5155 0.737197C22.7614 1.88843 21.3838 3.0398 20.1421 3.55675C19.8443 3.68071 19.3003 3.86365 18.9333 3.96327L18.2658 4.1444L13.1416 4.18616C8.13142 4.22701 8.00502 4.2314 7.45969 4.38248C5.61555 4.89329 4.15491 6.11731 3.34215 7.83297C3.11 8.32301 2.82353 9.29068 2.82353 9.58495C2.82353 9.71337 2.76218 9.74244 2.35294 9.80791C1.39008 9.96184 0.696052 10.4743 0.262553 11.3514L0 11.8826V20.9182V29.9538L0.260392 30.4805C0.573978 31.1151 0.977638 31.5103 1.6258 31.8174L2.0915 32.038H16H29.9085L30.3742 31.8174C31.0224 31.5103 31.426 31.1151 31.7396 30.4805L32 29.9538V20.9218V11.8899L31.7793 11.4242C31.658 11.1681 31.4269 10.8155 31.2657 10.6406C30.9047 10.249 30.1537 9.86082 29.6305 9.79543C29.4192 9.769 29.2462 9.743 29.2462 9.73763C29.2462 9.73219 29.1996 9.32993 29.1427 8.84358C28.7863 5.79647 27.5551 3.13218 25.4172 0.781816C24.72 0.0154193 24.4343 -0.126663 24.0356 0.0948268ZM25.5334 3.1305C26.1305 3.95686 26.8695 5.43931 27.2175 6.50884C27.4817 7.32083 27.713 8.4515 27.8083 9.39748L27.8453 9.7635H16.0316C7.44966 9.7635 4.21786 9.74244 4.21786 9.68639C4.21786 9.644 4.26764 9.41659 4.32844 9.18094C4.65318 7.92332 5.66107 6.70488 6.8671 6.11208C7.94639 5.58161 7.95942 5.58049 13.1563 5.58049C16.9206 5.58049 17.8156 5.56188 18.4288 5.47083C19.7505 5.27457 21.0872 4.75553 22.2169 3.99994C22.7984 3.61099 23.8162 2.6664 24.2039 2.15593L24.4706 1.80463L24.7843 2.16632C24.9569 2.36529 25.2939 2.79914 25.5334 3.1305ZM29.8801 11.3201C30.0491 11.4092 30.2815 11.6158 30.3965 11.7789L30.6057 12.0757L30.6274 13.3596L30.6492 14.6437H16H1.35083L1.37258 13.3596L1.39434 12.0757L1.60349 11.7789C1.71852 11.6158 1.95088 11.4092 2.11988 11.3201L2.42719 11.1578H16H29.5728L29.8801 11.3201ZM30.6405 16.7352V17.4323H16H1.35948V16.7352V16.038H16H30.6405V16.7352ZM30.6243 24.2934L30.6057 29.7603L30.3965 30.0572C30.2815 30.2205 30.0491 30.4271 29.8801 30.5163L29.5728 30.6785H16H2.42719L2.11988 30.5163C1.95088 30.4271 1.71852 30.2206 1.60349 30.0574C1.39998 29.7688 1.39371 29.7356 1.37154 28.8253L1.34867 27.8899H5.2549C8.13497 27.8899 9.20924 27.868 9.344 27.8065C9.67209 27.6571 9.80657 27.2378 9.64218 26.877C9.46677 26.492 9.50672 26.4955 5.2671 26.4955H1.35948V25.7984V25.1012H3.51742C5.8415 25.1012 5.96343 25.0845 6.1403 24.7425C6.26147 24.5081 6.26593 24.3287 6.15634 24.0883C5.99027 23.7239 5.87294 23.7069 3.52418 23.7069H1.35948V21.2668V18.8267H16.0013H30.643L30.6243 24.2934Z" fill="white"/>
</svg>
