<svg width="31" height="40" viewBox="0 0 31 40" fill="none" xmlns="http://www.w3.org/2000/svg">
<path fill-rule="evenodd" clip-rule="evenodd" d="M14.0543 0.0446027C11.6066 0.350071 9.27012 1.51538 7.29176 3.41718C6.27566 4.39398 5.62965 5.18507 4.89481 6.35202C4.26113 7.35835 4.03738 7.89476 3.80699 8.95991C3.65426 9.66577 3.63246 9.99593 3.63231 11.6025C3.63207 13.4368 3.73895 14.6432 4.02199 16.004C4.1277 16.5119 4.12535 16.5492 3.97442 16.7612C3.56543 17.3355 3.38965 18.1642 3.51145 18.944C3.72332 20.3008 4.91238 21.748 6.16254 22.1706C6.61691 22.3242 6.67652 22.4834 6.27035 22.4586C5.7302 22.4254 5.62176 22.4578 5.30066 22.7479C4.87691 23.1307 4.42137 24.0905 4.1134 25.2491C3.90028 26.051 3.86793 26.3015 3.8684 27.1494C3.86903 28.4883 4.00504 28.8372 4.85301 29.6741C5.32106 30.1361 5.52902 30.4119 5.70699 30.8069C5.97488 31.4015 6.49707 33.146 6.43645 33.2441C6.41441 33.2798 6.15941 33.3864 5.86981 33.4809C4.96559 33.7762 3.66442 34.3295 3.10192 34.658C2.10512 35.2402 0.996683 36.5361 0.338792 37.8884C-0.150973 38.8953 -0.111755 39.3015 0.469651 39.2445C0.708245 39.2211 0.751604 39.1648 1.19739 38.2988C1.46645 37.7761 1.90075 37.0929 2.20176 36.7186C3.01489 35.7076 3.74754 35.244 5.59988 34.5682C6.36481 34.2891 6.40098 34.2831 6.35356 34.4427C6.26106 34.754 5.4741 36.7362 5.03231 37.7709C4.57192 38.849 4.55238 39.0158 4.8627 39.2191C5.11527 39.3846 5.3677 39.2814 5.5409 38.9419C5.78926 38.455 6.85699 35.8406 7.14551 35.0129C7.59605 33.7203 7.47723 32.7206 6.62059 30.5972C6.03871 29.1547 6.00785 29.058 5.92809 28.429C5.82043 27.5798 5.94988 26.7575 6.37434 25.5942C6.57184 25.053 6.91738 24.1005 7.14223 23.4775C7.50965 22.4596 7.5709 22.3423 7.74582 22.3209C7.87113 22.3056 7.95832 22.3435 7.99043 22.4271C8.05113 22.5853 7.85035 24.3697 7.64441 25.5023C7.56176 25.957 7.49363 26.4796 7.49293 26.6637C7.49137 27.114 7.76887 27.642 8.49809 28.5757C10.1624 30.7068 10.4486 31.8934 9.72433 33.6585C9.45699 34.3098 9.12309 35.5347 8.62582 37.6881C8.37309 38.7826 8.35863 38.9069 8.46473 39.0689C8.62465 39.313 8.86652 39.3755 9.0884 39.2301C9.22809 39.1386 9.30238 38.9665 9.4034 38.5009C9.7659 36.8301 10.3443 34.6269 10.5526 34.1234C10.8139 33.4918 11.005 32.8295 11.0064 32.5505C11.007 32.4365 11.1653 32.195 11.4189 31.9212C12.0731 31.2144 12.4662 30.2523 12.6071 29.0134L12.6571 28.5728L13.2189 28.789C13.528 28.908 14.1089 29.0847 14.51 29.1818L15.2391 29.3583L15.9553 29.1839C16.3492 29.088 16.9243 28.9119 17.2335 28.7926L17.7955 28.5757L17.8454 29.0149C17.9846 30.2401 18.3853 31.2195 19.0347 31.9219C19.3286 32.2397 19.4453 32.429 19.4465 32.5895C19.4475 32.7126 19.5549 33.1122 19.6853 33.4775C20.1308 34.7252 20.3646 35.5482 20.7811 37.3345C21.1318 38.8386 21.2253 39.1393 21.3721 39.2355C21.5854 39.3752 21.8299 39.3095 21.9866 39.0704C22.0906 38.9116 22.0821 38.8044 21.9023 38.0021C21.486 36.1448 20.9808 34.274 20.7226 33.6337C20.0131 31.874 20.3035 30.6864 21.962 28.5674C22.9843 27.2612 23.0793 26.9526 22.8475 25.6931C22.7853 25.3554 22.682 24.6923 22.6179 24.2197C22.372 22.4049 22.3796 22.2665 22.7236 22.3183C22.8768 22.3414 22.9951 22.6097 23.6655 24.454C24.5329 26.8405 24.6653 27.451 24.5285 28.4343C24.4401 29.0702 24.41 29.1637 23.8317 30.5972C22.9752 32.7202 22.8563 33.72 23.3064 35.0129C23.5849 35.8126 24.6686 38.4622 24.9192 38.9558C25.0871 39.2865 25.3407 39.3822 25.5996 39.2125C25.8814 39.0279 25.8899 38.8942 25.6554 38.3338C24.3985 35.3299 24.0189 34.3369 24.1278 34.3369C24.2624 34.3369 25.5474 34.8136 26.1362 35.0819C27.4824 35.6954 28.4581 36.702 29.2644 38.3093C29.7532 39.2838 29.9322 39.445 30.2757 39.22C30.4067 39.1341 30.4606 39.0255 30.4608 38.8468C30.4612 38.5098 29.7876 37.1742 29.27 36.4853C28.1652 35.0153 27.2012 34.3778 24.8746 33.5787C24.4449 33.4312 24.0674 33.2851 24.0357 33.2543C23.9565 33.1772 24.3232 31.869 24.6597 31.0281C24.9073 30.4093 25.0039 30.2694 25.5766 29.7C26.4517 28.8298 26.5852 28.4912 26.5825 27.1494C26.5809 26.3094 26.5465 26.0435 26.337 25.2491C26.0321 24.0932 25.5764 23.1316 25.1516 22.7479C24.8305 22.4578 24.7221 22.4254 24.1819 22.4586C23.7757 22.4834 23.8353 22.3242 24.2897 22.1706C25.5399 21.748 26.7289 20.3008 26.9408 18.944C27.0626 18.1642 26.8868 17.3355 26.4778 16.7612C26.3269 16.5492 26.3246 16.5119 26.4303 16.004C26.7133 14.6432 26.8202 13.4368 26.82 11.6025C26.8198 9.99312 26.7982 9.66648 26.6443 8.95538C26.4297 7.9628 26.218 7.42944 25.6946 6.56296C23.6514 3.18038 20.4561 0.798274 17.1105 0.163587C16.3011 0.0100715 14.7998 -0.048366 14.0543 0.0446027ZM16.9314 1.09679C18.2682 1.35038 19.9123 2.07976 21.1861 2.98437C21.9745 3.54429 23.4774 5.02726 24.0849 5.84476C25.08 7.18382 25.5363 8.14101 25.7869 9.41499C25.9551 10.2698 25.9087 13.285 25.7065 14.6473C25.6142 15.2691 25.5386 15.8096 25.5386 15.8484C25.5386 15.8878 25.4267 15.8932 25.2847 15.8605C25.145 15.8285 24.8902 15.7801 24.7183 15.7531L24.4058 15.7041L24.3493 15.04C23.96 10.4645 22.9037 8.41241 20.4347 7.43452C19.9932 7.2596 19.7911 7.1121 19.2626 6.57882C17.2685 4.56663 14.4393 4.02249 12.4688 5.2721C11.491 5.89226 10.8812 6.72577 10.2539 8.29984C9.57887 9.99398 9.11926 10.6398 7.95996 11.524C7.63738 11.77 7.23777 12.1214 7.07207 12.3048C6.5652 12.8659 6.21254 13.8192 6.12059 14.8775C6.04934 15.6971 6.03184 15.743 5.79106 15.7436C5.67371 15.7438 5.44254 15.7815 5.27738 15.8273C5.11223 15.8732 4.96504 15.8987 4.95027 15.8839C4.93551 15.8692 4.84402 15.3129 4.74692 14.6478C4.5366 13.2075 4.49106 10.3858 4.66301 9.45405C4.98949 7.68476 5.91746 6.13335 7.72355 4.33687C8.7584 3.30757 9.56371 2.70781 10.7104 2.11241C11.945 1.4714 13.0613 1.12343 14.4449 0.948353C14.9167 0.888665 16.2555 0.968587 16.9314 1.09679ZM16.3163 5.78648C17.1817 6.06101 17.8169 6.47187 18.6648 7.30562C19.3232 7.95304 19.4936 8.07663 19.9986 8.27288C22.0778 9.08093 22.8615 10.5391 23.3624 14.5322C23.5092 15.7022 23.4896 17.9466 23.3233 19.0208C23.1346 20.2403 22.8845 21.2955 22.7764 21.3286C22.7273 21.3437 22.5566 21.3776 22.3971 21.404C22.0332 21.4644 21.6628 21.8242 21.556 22.2212C21.5008 22.4258 21.5013 22.7688 21.5575 23.3157L21.6392 24.1122L21.2898 24.6018C20.9218 25.1176 19.9953 26.0292 19.2828 26.5766C18.272 27.3533 17.0225 27.9587 15.8548 28.2376C15.2339 28.3859 15.2182 28.3859 14.5923 28.2364C12.97 27.849 11.5624 27.0398 10.1186 25.665C9.78027 25.3427 9.34809 24.8615 9.15824 24.5956L8.81309 24.1122L8.89441 23.3195C8.93918 22.8835 8.95379 22.433 8.92684 22.3185C8.80035 21.78 8.33676 21.3681 7.85707 21.3681C7.62418 21.3681 7.57387 21.2423 7.34207 20.079C7.15996 19.1651 7.05316 18.2899 6.98465 17.1494C6.89574 15.6693 7.2234 13.3365 7.43223 13.9629C7.45668 14.0363 7.55941 14.0337 7.88793 13.9514C8.47113 13.8053 10.9754 13.7504 11.9261 13.8628C12.665 13.9502 12.6911 13.948 12.8238 13.7846C12.9975 13.5709 12.9953 13.5123 12.8073 13.3243C12.3489 12.8658 10.4436 12.7426 9.05426 13.0815C8.64605 13.181 8.09105 13.362 7.82082 13.4836L7.32965 13.7048L7.54738 13.3028C7.6916 13.0366 7.94895 12.754 8.30887 12.4665C9.90566 11.1909 10.4639 10.4207 11.1889 8.49273C11.5473 7.53976 11.8877 6.98679 12.4136 6.50319C13.4439 5.55593 14.8028 5.3064 16.3163 5.78648ZM18.8589 12.9035C18.115 13.0235 17.4918 13.3169 17.4918 13.5469C17.4918 13.5851 17.5533 13.6921 17.6285 13.7846C17.7612 13.948 17.7872 13.9502 18.5261 13.8628C19.4692 13.7513 21.9814 13.8053 22.5561 13.9495C22.9128 14.039 22.9822 14.0379 23.0432 13.9415C23.1657 13.7479 23.1296 13.7078 22.6285 13.4823C21.6682 13.0501 19.7633 12.7576 18.8589 12.9035ZM8.63512 16.3738C8.29223 16.6435 8.3941 16.915 8.83832 16.915C8.9273 16.915 9.21449 17.0344 9.47645 17.1804C10.4524 17.7242 11.5859 17.863 12.2554 17.5205C12.6707 17.308 12.8004 17.1283 12.6782 16.9345C12.605 16.8185 12.463 16.797 11.7411 16.7927C10.9508 16.788 10.8382 16.7672 10.1597 16.4998C9.32402 16.1704 8.93457 16.1382 8.63512 16.3738ZM20.2652 16.5048C19.6125 16.7672 19.5011 16.7878 18.7112 16.7926C17.9893 16.797 17.8473 16.8185 17.7741 16.9345C17.6519 17.1283 17.7815 17.308 18.1968 17.5205C18.8601 17.8598 20.2137 17.6905 20.9683 17.174C21.1402 17.0562 21.4177 16.9411 21.585 16.918C21.7598 16.8938 21.926 16.8157 21.9757 16.7344C22.0468 16.618 22.0233 16.5594 21.8428 16.4024C21.5337 16.1337 21.122 16.1604 20.2652 16.5048ZM6.03629 16.8564C6.06215 16.9531 6.08387 17.2255 6.08441 17.4619L6.08551 17.8916H5.72762C5.46356 17.8916 5.34074 17.9313 5.25887 18.0432C5.02106 18.3684 5.22504 18.79 5.6202 18.79C6.0327 18.79 6.15965 18.9919 6.35777 19.9632C6.45848 20.4566 6.56598 20.9755 6.59676 21.1162C6.65254 21.3714 6.65215 21.3718 6.42856 21.2868C6.03785 21.1382 5.73223 20.9149 5.31324 20.4719C4.09738 19.1862 4.11153 17.4598 5.34332 16.8105C5.69473 16.6251 5.97934 16.6441 6.03629 16.8564ZM25.1316 16.8293C26.0258 17.2878 26.3023 18.4256 25.7871 19.5266C25.4896 20.1623 24.806 20.9004 24.2649 21.17C24.0479 21.2781 23.8629 21.3581 23.8539 21.3478C23.8447 21.3375 23.9203 20.9423 24.0217 20.4697C24.1231 19.997 24.207 19.512 24.2082 19.3919C24.2111 19.1098 24.5289 18.79 24.8063 18.79C25.2259 18.79 25.4389 18.3791 25.1934 18.0432C25.1109 17.9305 24.9886 17.8916 24.7167 17.8916H24.3509L24.3978 17.5486C24.4237 17.36 24.4449 17.0876 24.4449 16.9431C24.4449 16.7141 24.4702 16.6806 24.6433 16.6806C24.7525 16.6806 24.9721 16.7475 25.1316 16.8293ZM14.0717 19.6929C13.8239 19.8663 13.8426 20.2166 14.1129 20.4674C14.7261 21.0364 15.7564 21.0213 16.3785 20.4342C16.6254 20.2011 16.6121 19.8472 16.3501 19.6755C16.1528 19.5462 16.1334 19.5487 15.7721 19.7518C15.3106 20.0112 15.1173 20.0144 14.7183 19.7686C14.3472 19.5401 14.2981 19.5343 14.0717 19.6929ZM7.74566 19.8166C7.51707 20.0469 7.66691 20.2968 8.08754 20.3866C8.31887 20.436 8.58551 20.2973 8.58551 20.1275C8.58551 19.8652 7.93598 19.6248 7.74566 19.8166ZM22.1793 19.7971C21.9561 19.8587 21.8777 20.1383 22.0315 20.3237C22.1028 20.4096 22.2075 20.4287 22.4086 20.3926C22.7242 20.336 22.8943 20.1645 22.8241 19.9738C22.735 19.7319 22.5744 19.6878 22.1793 19.7971ZM9.10637 20.4046C8.90512 20.6058 9.26902 21.1337 9.60894 21.1337C9.81035 21.1337 9.94191 20.8638 9.83644 20.6668C9.70035 20.4124 9.25754 20.2533 9.10637 20.4046ZM20.7866 20.5333C20.5471 20.7883 20.5641 21.0394 20.8253 21.105C20.9963 21.1479 21.0742 21.1123 21.2564 20.9085C21.4378 20.7055 21.4636 20.6313 21.3966 20.5061C21.2858 20.2991 20.9944 20.3121 20.7866 20.5333ZM10.1189 21.6119C9.94145 21.8654 10.1709 22.3837 10.4605 22.3837C10.8053 22.3837 10.8509 21.9148 10.5367 21.6005C10.3404 21.4043 10.2629 21.4064 10.1189 21.6119ZM19.9711 21.5439C19.7741 21.6935 19.664 22.053 19.7601 22.2326C19.8837 22.4635 20.13 22.417 20.3051 22.1298C20.4923 21.8229 20.4978 21.729 20.3378 21.569C20.1895 21.4207 20.138 21.4172 19.9711 21.5439ZM12.6039 22.7024C12.4642 22.8561 12.4601 23.0415 12.5939 23.1525C12.7618 23.2918 13.5884 23.4775 14.0407 23.4775C14.2729 23.4775 14.6346 23.5385 14.8446 23.613C15.2067 23.7416 15.2456 23.7416 15.6077 23.613C15.8176 23.5385 16.1793 23.4775 16.4116 23.4775C16.8639 23.4775 17.6905 23.2918 17.8584 23.1525C17.9909 23.0425 17.989 22.8172 17.8547 22.7057C17.7618 22.6285 17.145 22.6069 15.2261 22.6137C15.0757 22.6141 14.4494 22.6066 13.8343 22.5968C12.8993 22.5819 12.6976 22.5993 12.6039 22.7024ZM10.5543 23.0244C10.5027 23.0759 10.4605 23.2447 10.4605 23.3994C10.4605 23.8299 10.7079 24.0002 10.9628 23.7454C11.2013 23.5068 11.0466 22.9306 10.744 22.9306C10.6912 22.9306 10.6058 22.9728 10.5543 23.0244ZM19.5386 23.0244C19.4174 23.1456 19.4174 23.6531 19.5386 23.7744C19.6794 23.9151 19.8978 23.8873 19.989 23.717C20.2257 23.2747 19.8564 22.7066 19.5386 23.0244ZM5.6902 24.7273C5.13457 26.2306 4.99988 26.7633 4.9727 27.5642C4.94676 28.3295 4.83074 28.2098 4.77793 27.3633C4.73301 26.6423 4.85488 25.9371 5.2066 24.8837C5.55926 23.8278 5.92098 23.2278 6.10504 23.3935C6.13731 23.4225 5.95059 24.0227 5.6902 24.7273ZM24.8294 23.8584C25.3819 24.959 25.7334 26.4169 25.6743 27.3633C25.6215 28.2098 25.5055 28.3295 25.4796 27.5642C25.4525 26.7638 25.3177 26.2306 24.7639 24.7324C24.5046 24.0307 24.3103 23.4276 24.3321 23.3923C24.4186 23.2522 24.6196 23.4405 24.8294 23.8584ZM14.5476 24.2643C14.4538 24.2994 14.3359 24.4048 14.2857 24.4986C14.005 25.0232 14.9588 25.4683 15.763 25.188C16.1671 25.0472 16.294 24.6353 16.012 24.3801C15.8911 24.2707 15.7837 24.2533 15.483 24.2947C15.2754 24.3233 15.0186 24.3137 14.912 24.2736C14.8055 24.2334 14.6415 24.2292 14.5476 24.2643ZM10.151 24.6451C9.91402 24.978 9.96277 25.2287 10.2704 25.2587C10.4752 25.2787 10.5316 25.2418 10.6598 25.0037C10.7747 24.7903 10.79 24.6934 10.7248 24.5896C10.5804 24.359 10.338 24.3825 10.151 24.6451ZM19.802 24.5377C19.6461 24.6937 19.6475 24.7136 19.8377 25.0255C19.9639 25.2324 20.0383 25.2794 20.2085 25.2598C20.488 25.2276 20.5336 24.9196 20.3023 24.6255C20.1134 24.3854 19.9781 24.3616 19.802 24.5377ZM10.6949 27.382C11.0601 27.6519 11.4426 27.911 11.545 27.9579C11.7247 28.0403 11.7293 28.064 11.6826 28.6705C11.656 29.0155 11.5802 29.5087 11.5141 29.7665C11.3869 30.263 11.0776 30.9384 10.9775 30.9384C10.9446 30.9384 10.8209 30.6897 10.7026 30.3856C10.4129 29.6409 10.0651 29.0488 9.49949 28.337C8.37402 26.9208 8.34012 26.8381 8.51879 25.9483L8.60832 25.5023L9.31957 26.1969C9.71074 26.5788 10.3296 27.1122 10.6949 27.382ZM22.0155 26.57C22.0237 26.9192 21.8502 27.2077 20.9528 28.337C20.3947 29.0393 20.0396 29.6403 19.7634 30.3502C19.6527 30.6349 19.529 30.8837 19.4886 30.9031C19.2795 31.0037 18.8457 29.6819 18.768 28.7078L18.721 28.1179L19.4906 27.575C19.9139 27.2765 20.6128 26.6921 21.0439 26.2765L21.8277 25.5208L21.9178 25.8858C21.9675 26.0866 22.0114 26.3945 22.0155 26.57Z" fill="white"/>
</svg>
