<svg width="35" height="35" viewBox="0 0 35 35" fill="none" xmlns="http://www.w3.org/2000/svg">
<path fill-rule="evenodd" clip-rule="evenodd" d="M15.8244 0.0791098C12.4307 0.403963 9.12522 1.76276 6.45635 3.93014C5.77042 4.48711 4.51146 5.74956 3.93419 6.4592C2.28156 8.49059 0.933015 11.2706 0.420519 13.7025C0.0313647 15.5489 0.0534362 14.9087 0.0256931 25.1657L0 34.6473L0.170422 34.8177C0.376718 35.024 0.677382 35.0403 0.903221 34.8575L1.06455 34.7269L1.10262 25.2739C1.13692 16.7515 1.15223 15.7535 1.25828 15.1374C1.9002 11.4077 3.41691 8.4006 5.91228 5.91001C8.43642 3.39065 11.553 1.8272 15.1891 1.25628C16.1335 1.108 18.7341 1.08681 19.5827 1.22047C21.8117 1.57156 23.5798 2.14522 25.3288 3.08472C25.6704 3.26827 26.0177 3.41839 26.1006 3.41839C26.3254 3.41839 26.5868 3.12251 26.5868 2.86811C26.5868 2.56034 26.3397 2.36135 25.3499 1.87216C22.3289 0.379022 19.08 -0.232556 15.8244 0.0791098ZM27.487 3.71318C27.1676 4.05327 27.3856 4.60738 27.8387 4.60738C28.1762 4.60738 28.3635 4.42309 28.3635 4.09113C28.3635 3.59367 27.8196 3.35922 27.487 3.71318ZM12.7798 4.16158C11.1138 4.75696 9.11859 5.82985 8.95848 6.21634C8.86193 6.44956 8.91161 6.65073 9.11189 6.83735C9.33664 7.04672 9.5264 7.00196 10.2405 6.57099C10.6057 6.35062 11.1042 6.06963 11.3483 5.94657C11.8575 5.68991 13.1292 5.17215 13.4328 5.09794C14.0214 4.95403 14.2941 4.65084 14.1576 4.29203C14.0776 4.08129 13.8317 3.89535 13.6396 3.90027C13.5634 3.90219 13.1765 4.01979 12.7798 4.16158ZM29.1462 5.1578C28.8766 5.42737 28.9206 5.68731 29.3064 6.10455C31.4084 8.37812 32.7309 10.7724 33.4085 13.5316C33.8235 15.221 33.8476 15.5123 33.8804 19.2295L33.9104 22.6381L34.0722 22.7999C34.288 23.0157 34.6047 23.0131 34.824 22.7938L34.9917 22.6261L34.9917 19.6676C34.9916 15.9767 34.9135 15.0501 34.4453 13.1873C33.8662 10.8831 32.6517 8.43305 31.1835 6.60768C30.6315 5.92142 29.9132 5.15637 29.7277 5.05708C29.5207 4.94631 29.3235 4.98048 29.1462 5.1578ZM13.3986 6.25652C11.7801 6.84159 10.0927 7.84615 9.03051 8.85699C7.68825 10.1343 6.94834 11.4511 6.67542 13.0482C6.52249 13.9432 6.5117 20.9632 6.6621 21.7426C6.96891 23.333 7.84678 24.7937 9.46838 26.4123C10.7516 27.6932 12.6834 29.1614 13.8622 29.752C15.6975 30.6715 17.9281 30.8498 19.9352 30.2376C20.7349 29.9937 20.971 29.6479 20.6321 29.2171C20.4532 28.9896 20.2601 28.9989 19.2411 29.2835C18.6277 29.4548 18.4493 29.4743 17.4986 29.4743C16.5759 29.4743 16.3539 29.4515 15.7762 29.2976C14.8911 29.0618 14.1017 28.6819 13.1745 28.0457C11.9942 27.2358 11.3218 26.6907 10.401 25.7973C9.05941 24.4957 8.2319 23.2863 7.85293 22.0732L7.69283 21.5607V17.4266C7.69283 12.7913 7.68449 12.884 8.19794 11.7884C8.76907 10.5697 9.65035 9.59034 10.9609 8.71793C11.7365 8.20161 12.9823 7.56229 13.6813 7.32183L14.0666 7.18933L14.3305 7.46307C15.0861 8.24678 16.4342 9.17754 17.8061 9.86257C19.8129 10.8647 21.6582 11.4124 24.2955 11.7885C25.6754 11.9853 26.0458 12.1151 26.5475 12.5776C26.7287 12.7445 26.9536 13.0554 27.0822 13.3166L27.3043 13.7674L27.3385 16.594L27.3726 19.4205L27.534 19.5511C27.7604 19.7343 28.0605 19.7174 28.2681 19.5098L28.4399 19.3379L28.4177 16.4861L28.3953 13.6341L28.2196 13.18C27.8669 12.2682 27.156 11.4984 26.3085 11.1104C26.1019 11.0158 25.6265 10.8903 25.252 10.8314C24.8775 10.7725 24.1713 10.661 23.6827 10.5837C20.1154 10.019 16.7496 8.43565 14.8259 6.41738C14.3648 5.93358 14.3093 5.92736 13.3986 6.25652ZM17.8744 6.43924C17.5449 6.62818 17.4739 6.97169 17.7038 7.26402C17.895 7.50708 19.604 8.33144 20.6967 8.70762C22.1072 9.19326 23.295 9.46351 24.9359 9.6722C26.0311 9.81146 26.7183 10.0328 27.3474 10.4487C28.652 11.3112 29.5251 12.825 29.5251 14.2243C29.5251 14.7635 29.8628 15.0698 30.2709 14.9007C30.5575 14.782 30.6465 14.5112 30.592 13.9245C30.4571 12.473 29.8014 11.1118 28.7829 10.1688C27.8624 9.3166 26.7763 8.82378 25.4097 8.63812C22.5899 8.25505 20.8382 7.74761 18.9524 6.76738C18.5178 6.54147 18.1283 6.35765 18.0867 6.35875C18.0451 6.35991 17.9496 6.39613 17.8744 6.43924ZM10.9045 13.1598C10.8293 13.1771 10.5987 13.225 10.392 13.2663C9.82392 13.3796 8.97119 13.7274 8.85503 13.8932C8.701 14.1131 8.72766 14.4018 8.91974 14.5939C9.13089 14.8051 9.32003 14.8051 9.79754 14.5939C10.3528 14.3483 11.2169 14.1895 11.718 14.2411C12.6333 14.335 13.9385 14.7762 14.3665 15.1364C14.6302 15.3583 14.9249 15.3599 15.1442 15.1405C15.5414 14.7433 15.2503 14.2838 14.3171 13.835C13.4039 13.3958 11.5084 13.0208 10.9045 13.1598ZM22.5489 13.2504C21.6478 13.4477 21.199 13.5892 20.6633 13.8449C19.7483 14.2816 19.4581 14.7456 19.853 15.1405C20.0722 15.3599 20.367 15.3583 20.6307 15.1364C21.0586 14.7762 22.3639 14.335 23.2791 14.2411C23.7803 14.1895 24.6443 14.3483 25.1996 14.5939C25.6607 14.7978 25.8324 14.8038 26.0264 14.623C26.4007 14.2744 26.2805 13.8735 25.7286 13.6294C24.6874 13.169 23.5438 13.0327 22.5489 13.2504ZM4.54645 14.3827C4.44067 14.4884 4.37869 14.6285 4.37869 14.7616C4.37869 14.8947 4.44067 15.0348 4.54645 15.1405C4.65216 15.2463 4.79224 15.3083 4.92535 15.3083C5.05846 15.3083 5.19855 15.2463 5.30426 15.1405C5.41004 15.0348 5.47201 14.8947 5.47201 14.7616C5.47201 14.6285 5.41004 14.4884 5.30426 14.3827C5.19855 14.2769 5.05846 14.215 4.92535 14.215C4.79224 14.215 4.65216 14.2769 4.54645 14.3827ZM4.54645 16.5694L4.37869 16.737V22.4149V28.0927L4.54645 28.2604C4.65216 28.3662 4.79224 28.4282 4.92535 28.4282C5.05846 28.4282 5.19855 28.3662 5.30426 28.2604L5.47201 28.0927V22.4149V16.737L5.30426 16.5694C5.19855 16.4636 5.05846 16.4016 4.92535 16.4016C4.79224 16.4016 4.65216 16.4636 4.54645 16.5694ZM9.45595 17.1056C8.85229 17.7093 8.75198 17.8412 8.75198 18.0312C8.75198 18.3246 9.01233 18.5883 9.3022 18.5883C9.47385 18.5883 9.60969 18.4987 9.97978 18.1414L10.4426 17.6946L10.7936 17.9127L11.1444 18.1308L10.7682 18.5253C10.3313 18.9834 10.2787 19.2328 10.5597 19.5138C10.8717 19.8258 11.0861 19.7541 11.7353 19.1204L12.3102 18.5592L13.0765 18.5511C13.5808 18.5457 13.9595 18.5048 14.1844 18.4313C14.5721 18.3045 15.1069 17.9791 15.1069 17.87C15.1069 17.83 14.9551 17.6478 14.7696 17.465L14.4322 17.1327L14.0692 17.2895C13.1327 17.6939 11.9916 17.4724 10.9397 16.6821C10.3647 16.25 10.2903 16.2712 9.45595 17.1056ZM24.0574 16.6821C23.0056 17.4724 21.8645 17.6939 20.928 17.2895L20.5649 17.1327L20.2276 17.465C20.042 17.6478 19.8904 17.8292 19.8907 17.8682C19.8914 17.9713 20.298 18.232 20.7199 18.3996C21.0141 18.5165 21.2437 18.5467 21.8877 18.5533L22.6894 18.5616L23.2631 19.1216C23.911 19.754 24.1256 19.8257 24.4374 19.5138C24.7185 19.2328 24.6658 18.9834 24.2289 18.5253L23.8527 18.1308L24.2036 17.9127L24.5545 17.6946L25.0173 18.1414C25.3874 18.4987 25.5233 18.5883 25.6949 18.5883C25.9848 18.5883 26.2452 18.3246 26.2452 18.0312C26.2452 17.8412 26.1448 17.7093 25.5412 17.1056C24.7068 16.2712 24.6324 16.25 24.0574 16.6821ZM29.6929 16.5694C29.5265 16.7357 29.5251 16.7476 29.5251 18.0416C29.5251 19.3355 29.5265 19.3475 29.6929 19.5138C29.7986 19.6196 29.9387 19.6816 30.0718 19.6816C30.2049 19.6816 30.345 19.6196 30.4507 19.5138C30.6171 19.3475 30.6184 19.3355 30.6184 18.0416C30.6184 16.7476 30.6171 16.7357 30.4507 16.5694C30.345 16.4636 30.2049 16.4016 30.0718 16.4016C29.9387 16.4016 29.7986 16.4636 29.6929 16.5694ZM2.3598 17.6627C2.20188 17.8206 2.19204 17.8747 2.19204 18.5883C2.19204 19.3018 2.20188 19.3559 2.3598 19.5138C2.46551 19.6196 2.60559 19.6816 2.73871 19.6816C2.87182 19.6816 3.0119 19.6196 3.11761 19.5138C3.27553 19.3559 3.28537 19.3018 3.28537 18.5883C3.28537 17.8747 3.27553 17.8206 3.11761 17.6627C3.0119 17.5569 2.87182 17.4949 2.73871 17.4949C2.60559 17.4949 2.46551 17.5569 2.3598 17.6627ZM2.3598 20.9427L2.19204 21.1103V26.7882V32.466L2.3598 32.6337C2.46551 32.7395 2.60559 32.8015 2.73871 32.8015C2.87182 32.8015 3.0119 32.7395 3.11761 32.6337L3.28537 32.466V26.7882V21.1103L3.11761 20.9427C3.0119 20.8369 2.87182 20.7749 2.73871 20.7749C2.60559 20.7749 2.46551 20.8369 2.3598 20.9427ZM27.5158 20.933C27.285 21.1638 27.2915 21.2919 27.5776 22.1416C27.8458 22.938 27.8657 23.1454 27.7059 23.4822C27.5306 23.8515 27.2676 23.9944 26.6332 24.065C25.5809 24.182 24.8051 24.699 24.3667 25.5754C24.2348 25.8391 24.1268 26.0969 24.1268 26.1482C24.1268 26.2168 24.0173 26.2415 23.7138 26.2415C23.3662 26.2415 23.274 26.2682 23.1329 26.4093C22.9713 26.5708 22.9652 26.6109 22.9652 27.5026V28.4282H22.5863C22.2726 28.4282 22.1777 28.4577 22.0354 28.6L21.8636 28.7719L21.8848 31.0771L21.906 33.3823L22.0902 33.7313C22.3629 34.2483 22.5689 34.4611 23.0471 34.7204L23.4777 34.9539H28.4318H33.3859L33.8165 34.7204C34.2947 34.4611 34.5007 34.2483 34.7734 33.7313L34.9576 33.3823L34.9788 31.0771L35 28.7719L34.8281 28.6C34.6859 28.4577 34.591 28.4282 34.2773 28.4282H33.8984V27.5026C33.8984 26.6109 33.8923 26.5708 33.7307 26.4093C33.5941 26.2726 33.4946 26.2415 33.1942 26.2415H32.8256L32.7862 25.5069C32.7139 24.1608 32.2828 23.1905 31.3361 22.2438C30.4492 21.3569 29.4593 20.8915 28.2645 20.7996C27.7131 20.7573 27.6869 20.7619 27.5158 20.933ZM29.5695 22.2846C30.8354 22.8851 31.6092 24.0838 31.6939 25.5753L31.7316 26.2415H28.51C25.6323 26.2415 25.2885 26.2301 25.2885 26.1346C25.2885 25.9484 25.9816 25.3216 26.2872 25.2313C26.4726 25.1765 27.1085 25.1482 28.1524 25.1482H29.7363L29.904 24.9804C30.0098 24.8747 30.0718 24.7346 30.0718 24.6015C30.0718 24.4684 30.0098 24.3283 29.904 24.2226C29.7537 24.0722 29.6793 24.0549 29.1848 24.0549H28.6333L28.7465 23.8359C28.9157 23.5089 28.9474 22.8515 28.816 22.3994C28.755 22.1897 28.7051 22.0026 28.7051 21.9837C28.7051 21.915 29.0249 22.0263 29.5695 22.2846ZM16.198 23.095C15.5156 23.3725 14.3234 24.1738 14.2504 24.4041C14.1709 24.6546 14.2892 25.2676 14.4974 25.6842C14.7361 26.162 15.2832 26.7021 15.787 26.9573C16.7865 27.4638 18.284 27.4477 19.2747 26.9196C19.7756 26.6526 20.3215 26.0874 20.5405 25.609C20.7392 25.175 20.8271 24.5466 20.7177 24.3422C20.6119 24.1444 19.386 23.3387 18.8753 23.1311C18.3699 22.9258 18.0909 22.9176 17.7538 23.0983L17.4986 23.2351L17.2433 23.0983C16.9301 22.9305 16.605 22.9294 16.198 23.095ZM17.0202 24.3282C17.3722 24.7094 17.6276 24.7065 17.9871 24.3171C18.2344 24.0493 18.2607 24.0376 18.4379 24.1172C18.895 24.3223 19.6169 24.8229 19.6169 24.9347C19.6169 25.136 19.2276 25.6792 18.9543 25.8593C18.2051 26.3528 16.792 26.3528 16.0429 25.8593C15.7471 25.6644 15.3657 25.1096 15.3949 24.9166C15.4132 24.7957 16.5345 24.0549 16.6992 24.0549C16.737 24.0549 16.8815 24.1779 17.0202 24.3282ZM6.73309 26.4093L6.56534 26.577V30.6148V34.6527L6.73309 34.8203C6.8388 34.9261 6.97889 34.9881 7.112 34.9881C7.24511 34.9881 7.38519 34.9261 7.4909 34.8203L7.65866 34.6527V30.6148V26.577L7.4909 26.4093C7.38519 26.3035 7.24511 26.2415 7.112 26.2415C6.97889 26.2415 6.8388 26.3035 6.73309 26.4093ZM32.8051 27.8815V28.4282H28.4318H24.0585V27.8815V27.3348H28.4318H32.8051V27.8815ZM4.54645 29.6892L4.37869 29.8569V32.2548V34.6527L4.54645 34.8203C4.65216 34.9261 4.79224 34.9881 4.92535 34.9881C5.05846 34.9881 5.19855 34.9261 5.30426 34.8203L5.47201 34.6527V32.2548V29.8569L5.30426 29.6892C5.19855 29.5835 5.05846 29.5215 4.92535 29.5215C4.79224 29.5215 4.65216 29.5835 4.54645 29.6892ZM33.8845 31.3616C33.8654 33.0965 33.8562 33.2125 33.7233 33.3903C33.6459 33.494 33.4976 33.6422 33.3938 33.7197C33.2074 33.8588 33.1461 33.8606 28.4386 33.8606H23.672L23.4139 33.6637C22.9864 33.3377 22.9652 33.224 22.9652 31.2662V29.5215H28.4349H33.9047L33.8845 31.3616ZM25.8662 31.3292C25.7605 31.4349 25.6985 31.575 25.6985 31.7081C25.6985 31.8412 25.7605 31.9813 25.8662 32.087C25.972 32.1928 26.112 32.2548 26.2452 32.2548C26.3783 32.2548 26.5183 32.1928 26.6241 32.087C26.7298 31.9813 26.7918 31.8412 26.7918 31.7081C26.7918 31.575 26.7298 31.4349 26.6241 31.3292C26.5183 31.2234 26.3783 31.1615 26.2452 31.1615C26.112 31.1615 25.972 31.2234 25.8662 31.3292ZM28.0529 31.3292C27.9471 31.4349 27.8851 31.575 27.8851 31.7081C27.8851 31.8412 27.9471 31.9813 28.0529 32.087C28.1586 32.1928 28.2987 32.2548 28.4318 32.2548C28.5649 32.2548 28.705 32.1928 28.8107 32.087C28.9165 31.9813 28.9785 31.8412 28.9785 31.7081C28.9785 31.575 28.9165 31.4349 28.8107 31.3292C28.705 31.2234 28.5649 31.1615 28.4318 31.1615C28.2987 31.1615 28.1586 31.2234 28.0529 31.3292ZM30.2395 31.3292C30.1338 31.4349 30.0718 31.575 30.0718 31.7081C30.0718 31.8412 30.1338 31.9813 30.2395 32.087C30.3452 32.1928 30.4853 32.2548 30.6184 32.2548C30.7516 32.2548 30.8916 32.1928 30.9973 32.087C31.1031 31.9813 31.1651 31.8412 31.1651 31.7081C31.1651 31.575 31.1031 31.4349 30.9973 31.3292C30.8916 31.2234 30.7516 31.1615 30.6184 31.1615C30.4853 31.1615 30.3452 31.2234 30.2395 31.3292ZM2.3598 34.0625C2.0208 34.4015 2.26099 34.9881 2.73871 34.9881C3.01962 34.9881 3.28537 34.7224 3.28537 34.4414C3.28537 34.1605 3.01962 33.8948 2.73871 33.8948C2.60559 33.8948 2.46551 33.9568 2.3598 34.0625Z" fill="white"/>
</svg>
