<svg width="40" height="32" viewBox="0 0 40 32" fill="none" xmlns="http://www.w3.org/2000/svg">
<path fill-rule="evenodd" clip-rule="evenodd" d="M17.3634 0.103596C16.5455 0.32383 16.3511 0.484768 13.6523 3.17516C11.1661 5.65375 11.0156 5.81969 11.0156 6.0843C11.0156 6.42735 11.233 6.64953 11.5688 6.64953C11.7694 6.64953 11.9563 6.5011 12.7397 5.71977L13.6719 4.79V5.15164C13.6719 5.69227 13.9463 6.47891 14.2981 6.94719C14.4693 7.17508 14.6094 7.3843 14.6094 7.41219C14.6094 7.44008 14.4752 7.48438 14.311 7.51063C14.147 7.53688 13.8393 7.64961 13.6274 7.76117C12.1658 8.53094 11.559 10.3332 12.2583 11.8277C12.4484 12.234 12.718 12.5586 13.6733 13.5314L14.8534 14.7332L14.5556 14.831C13.3811 15.2166 12.618 16.4716 12.8146 17.6941C12.9573 18.5809 13.0209 18.6588 16.1935 21.8385L19.1755 24.8271L18.5526 25.4581C17.1679 26.8609 15.7278 27.7884 14.2578 28.2241C13.8711 28.3388 13.2655 28.5186 12.9123 28.6237C11.7705 28.9633 10.8408 29.5448 9.90727 30.5033C9.33844 31.0873 9.27797 31.3041 9.59539 31.6216C9.72539 31.7516 9.90852 31.8579 10.0023 31.8579C10.1064 31.8579 10.3905 31.6503 10.731 31.3256C11.823 30.2841 12.424 29.9427 13.7973 29.5835C16.0039 29.0065 17.3549 28.2367 19.0437 26.594L20.0016 25.6623L20.8797 26.5198C22.6106 28.21 23.9284 28.9751 26.1124 29.5577C27.5659 29.9454 28.1755 30.2834 29.2334 31.2877C29.5951 31.6312 29.9003 31.8579 30.0011 31.8579C30.093 31.8579 30.2746 31.7516 30.4046 31.6216C30.722 31.3041 30.6616 31.0873 30.0927 30.5033C29.1578 29.5434 28.2185 28.9549 27.0898 28.622C26.7139 28.5111 26.0995 28.3289 25.7244 28.217C24.914 27.9753 24.0084 27.5338 23.2031 26.9878C22.789 26.707 21.4077 25.3873 18.4913 22.4859C16.222 20.2284 14.293 18.2649 14.2046 18.1227C13.4494 16.907 14.6248 15.427 15.9205 15.9623C16.1132 16.0419 16.9602 16.8294 18.4375 18.3023C19.6621 19.5234 20.752 20.5548 20.8594 20.5942C21.087 20.678 21.3833 20.5886 21.5334 20.3909C21.803 20.036 21.8048 20.0381 17.5523 15.768C14.886 13.0905 13.4119 11.5539 13.3141 11.3501C13.0998 10.9037 13.1123 10.054 13.3395 9.62164C13.778 8.78696 14.8219 8.37328 15.683 8.69289C15.9993 8.81032 16.5441 9.31844 19.339 12.1022C22.4709 15.2218 22.6366 15.3735 22.9102 15.3735C23.2624 15.3735 23.5156 15.1321 23.5156 14.7962C23.5156 14.5895 23.0011 14.0445 19.3068 10.3382C14.6652 5.68141 14.7762 5.8161 14.8653 4.95313C14.9998 3.6493 16.2001 2.89297 17.4666 3.31399C17.8138 3.42946 18.2659 3.85492 22.074 7.64992C26.4652 12.0261 26.4589 12.0206 26.8134 11.7514C27.023 11.5921 27.1246 11.2526 27.0227 11.052C26.9751 10.9581 25.4298 9.36961 23.5887 7.52196C21.3133 5.23852 20.2026 4.06953 20.1206 3.87211C19.9655 3.4986 19.9658 2.7161 20.1212 2.34367C20.2755 1.9736 20.655 1.57719 21.0547 1.3686C21.5048 1.13367 22.2662 1.13883 22.7344 1.37985C23.2084 1.62399 31.4062 9.79438 31.4062 10.0228C31.4062 10.1185 31.1539 10.4302 30.7729 10.805C29.8531 11.71 29.5312 12.1335 29.5312 12.4388C29.5312 12.8029 29.9071 13.0906 30.2235 12.9687C30.3036 12.9378 30.8661 12.3959 31.4736 11.7644L32.5781 10.6161V8.12594C32.5781 5.34782 32.603 5.17766 33.0922 4.60617C33.9433 3.61188 35.588 3.61188 36.4391 4.60617C36.9745 5.23164 36.9531 4.91258 36.9531 12.2871C36.9531 16.713 36.9813 19.0937 37.0375 19.4021C37.1804 20.187 37.5245 20.7679 38.3551 21.6269C39.029 22.3238 39.1362 22.4048 39.3838 22.4048C39.7216 22.4048 40 22.1416 40 21.8223C40 21.6488 39.8426 21.4413 39.2618 20.8502C38.7955 20.3757 38.4573 19.9552 38.3438 19.7088L38.1641 19.3188L38.125 12.2444L38.0859 5.16985L37.7923 4.57578C36.9573 2.88664 34.9935 2.20438 33.2855 3.00992C32.6832 3.29406 32.0084 3.9893 31.697 4.6468L31.4453 5.17821L31.4197 6.69375L31.394 8.20922L27.5525 4.37367C23.3757 0.203362 23.4172 0.237893 22.3502 0.049924C21.7355 -0.0583573 21.0522 0.0567987 20.4541 0.369377L20.0098 0.601564L19.5556 0.369924C18.8133 -0.00874817 18.1016 -0.0951544 17.3634 0.103596ZM18.9026 1.35774C19.1515 1.45735 19.2147 1.51742 19.1723 1.61422C19.142 1.68383 19.0434 1.95164 18.9534 2.20946C18.8634 2.46727 18.781 2.69266 18.7703 2.71031C18.7597 2.72789 18.6883 2.68563 18.6116 2.61625C18.3155 2.34836 17.5563 2.06985 17.0166 2.03125C16.4883 1.99344 16.4817 1.99031 16.6185 1.83914C16.8052 1.63297 17.3766 1.30344 17.6822 1.22578C18.0074 1.14313 18.4991 1.19633 18.9026 1.35774ZM4.53125 2.74555C3.50773 2.96789 2.68039 3.61961 2.20773 4.57578L1.91406 5.16985L1.875 12.2444L1.83594 19.3188L1.65617 19.7088C1.54266 19.9552 1.20445 20.3757 0.738203 20.8502C0.140859 21.4583 0 21.6459 0 21.8334C0 22.1448 0.284453 22.4048 0.625469 22.4048C0.857734 22.4048 0.980391 22.3102 1.64937 21.6144C2.5068 20.7228 2.83289 20.1627 2.96336 19.3579C3.01633 19.031 3.04594 16.4963 3.04625 12.2429C3.04695 4.91758 3.02578 5.23133 3.56094 4.60617C4.20852 3.84961 5.32797 3.63258 6.22266 4.09016C6.72523 4.34719 7.18617 4.87844 7.33359 5.37055C7.39117 5.56258 7.42188 6.52703 7.42188 8.14156V10.618L8.4593 11.6923C9.58797 12.8611 9.95422 13.423 10.1963 14.3579C10.3795 15.0649 10.3264 16.2548 10.0831 16.897C9.81945 17.593 9.79336 17.9599 9.99453 18.142C10.0846 18.2235 10.2688 18.2902 10.404 18.2902C10.7461 18.2902 10.9637 18.0085 11.2243 17.2284C11.4191 16.6455 11.4396 16.4771 11.4412 15.4516C11.4428 14.4104 11.4253 14.2683 11.2248 13.6938C10.8852 12.7211 10.4615 12.0848 9.48141 11.0754C8.9932 10.5727 8.59375 10.0965 8.59375 10.0172C8.59375 9.93742 9.02984 9.43235 9.57031 8.8861C10.2362 8.21313 10.5469 7.84344 10.5469 7.72407C10.5469 7.62782 10.4405 7.44266 10.3105 7.31266C9.98563 6.98774 9.77445 7.05578 9.12844 7.69321L8.60844 8.20633L8.58156 6.69227L8.55469 5.17821L8.30297 4.6468C7.83117 3.65063 6.89047 2.92078 5.82547 2.72453C5.26625 2.62149 5.08906 2.62438 4.53125 2.74555ZM28.8005 14.0659C28.5528 14.3136 28.4841 14.761 28.5352 15.7907C28.5799 16.688 28.8691 17.7309 29.1705 18.0812C29.3877 18.3337 29.7634 18.361 30.0055 18.142C30.2081 17.9586 30.1801 17.5854 29.9117 16.897C29.753 16.4898 29.7277 16.2809 29.7184 15.3084C29.7069 14.0817 29.682 14.0091 29.2424 13.9213C29.0433 13.8814 28.9567 13.9098 28.8005 14.0659Z" fill="white"/>
</svg>
