<svg width="27" height="42" viewBox="0 0 27 42" fill="none" xmlns="http://www.w3.org/2000/svg">
<path fill-rule="evenodd" clip-rule="evenodd" d="M11.779 0.0298324C9.43703 0.379114 7.78922 1.12854 6.47935 2.44005C5.43553 3.48526 4.59038 5.02191 4.31357 6.37795C4.14251 7.21586 4.29796 7.53926 4.87172 7.53926C5.20284 7.53926 5.37801 7.2862 5.53257 6.58443C5.79919 5.37349 6.35158 4.38521 7.32852 3.37105C8.27259 2.391 9.2865 1.84181 10.8883 1.44298C11.8621 1.20051 13.8992 1.18137 14.9255 1.40502C16.9057 1.83663 18.785 2.8125 20.2008 4.14431C21.313 5.19067 21.7676 5.93336 22.0943 7.23788C22.2782 7.97252 22.4524 8.19658 22.8392 8.19658C23.1614 8.19658 23.4053 7.93505 23.4053 7.58955C23.4053 7.16706 23.0203 5.92818 22.6991 5.31704C21.4791 2.99515 18.4984 0.96314 15.2299 0.224973C14.5097 0.0622874 12.3718 -0.0585767 11.779 0.0298324ZM10.7519 3.07156C9.00024 3.41017 7.53475 4.75709 7.09936 6.42865C7.03092 6.69165 6.96502 6.91481 6.95303 6.92459C6.94103 6.93437 6.62429 7.13156 6.24904 7.36269C4.676 8.33199 2.96295 9.85795 2.09546 11.0627C0.43302 13.3718 -0.288549 16.201 0.105265 18.8663C0.267787 19.9662 0.527674 20.8315 1.03447 21.9591L1.40371 22.7808L1.31415 23.89C1.0274 27.4408 1.18039 29.5338 1.87986 31.6291C2.72171 34.1512 4.76466 36.8308 7.55587 39.0743C8.30151 39.6736 8.54677 39.8273 8.75941 39.8285C9.26916 39.8313 9.54639 39.2407 9.21132 38.8655C9.1322 38.7769 8.6793 38.3891 8.2048 38.0037C6.02744 36.2348 4.1849 33.9646 3.34452 32.0154C2.67406 30.4602 2.41565 28.9507 2.42469 26.6425C2.43397 24.2748 2.56716 23.0393 2.92055 22.0413C3.38043 20.7429 3.56481 20.4106 4.10011 19.915C4.78824 19.2779 5.64694 18.7671 7.91723 17.6443C10.1037 16.563 11.6158 15.7205 12.584 15.0438L13.2248 14.5961L14.5258 15.3775C16.698 16.682 16.975 16.7729 17.2941 16.2859C17.5279 15.9291 17.3675 15.6087 16.7892 15.2779C14.038 13.7035 10.5622 11.4184 9.68968 10.6105C8.56551 9.56939 8.15025 8.65038 8.22116 7.36023C8.24967 6.84013 8.31211 6.56463 8.48195 6.20886C9.21025 4.68339 10.8005 3.97283 12.5935 4.37174C13.7839 4.63655 14.4443 4.96464 17.1855 6.65287C20.2797 8.55868 21.3838 9.36069 22.5616 10.5579C23.2771 11.2854 24.1698 12.5446 24.5012 13.2941C25.2642 15.0194 25.5332 16.9737 25.2585 18.7961C25.1382 19.5945 24.7592 20.9338 24.6546 20.9299C24.6228 20.9286 24.4861 20.6805 24.351 20.3784C24.0217 19.6417 23.6271 19.1619 22.9012 18.6159C21.8577 17.8308 19.6797 16.6595 19.2634 16.6595C18.8027 16.6595 18.5151 17.2563 18.8066 17.6075C18.8683 17.6818 19.3249 17.9463 19.8213 18.1953C21.4962 19.0353 22.5895 19.8082 22.9936 20.4378C23.1304 20.651 23.4036 21.2654 23.6006 21.8031C23.9229 22.683 23.9693 22.904 24.0645 24.0133C24.2266 25.9016 24.1952 28.2473 23.9923 29.3967C23.687 31.1273 23.189 32.4031 22.2769 33.7915C20.5332 36.4457 17.0953 39.4167 14.5434 40.4745C13.5517 40.8856 13.0401 40.8816 12.0027 40.4544C11.3261 40.1758 11.2138 40.1515 11.0032 40.2388C10.7017 40.3637 10.5496 40.7053 10.6628 41.0033C10.7538 41.2425 11.1947 41.4944 12.0665 41.8052C12.7433 42.0464 13.7938 42.0664 14.4082 41.8496C16.9 40.9706 20.2525 38.4175 22.3098 35.8322C25.0849 32.3448 25.7693 29.439 25.248 23.3559C25.2012 22.8096 25.215 22.7457 25.5235 22.0824C26.8941 19.1354 26.9544 15.8641 25.6911 12.98C24.6394 10.5793 22.7944 8.7341 19.1327 6.42109C15.7263 4.26936 14.498 3.6049 13.299 3.26523C12.6975 3.09482 11.2147 2.98209 10.7519 3.07156ZM7.43295 9.69419C8.0657 10.947 9.01708 11.8403 11.3071 13.3319C11.7233 13.603 12.0646 13.8493 12.0652 13.8792C12.0666 13.9375 10.9893 14.6237 10.0535 15.1604C9.73717 15.3418 8.47964 15.9893 7.25901 16.5994C3.88862 18.2839 2.90823 19.0117 2.31163 20.2722C2.14098 20.6327 1.97525 20.9286 1.94337 20.9299C1.83886 20.9339 1.45983 19.5945 1.33954 18.7961C0.758721 14.9433 2.44704 11.446 6.0562 9.02611L7.01342 8.38433L7.11382 8.82267C7.16904 9.06375 7.31266 9.45592 7.43295 9.69419ZM9.43727 18.6315C9.22603 18.8427 9.21995 19.2975 9.42593 19.4839C9.51007 19.5601 9.77809 19.6552 10.0216 19.6953C10.2651 19.7354 10.5684 19.8082 10.6956 19.8572C11.0335 19.987 12.1526 19.9665 12.5595 19.8229C13.0123 19.6631 13.5972 19.6662 14.0487 19.8305C14.5397 20.0093 15.3741 20.0164 15.9694 19.8468C16.2405 19.7695 16.6 19.6849 16.7681 19.6586C17.1168 19.6042 17.3251 19.3669 17.3251 19.024C17.3251 18.4592 16.6849 18.3157 15.6351 18.6452L15.0678 18.8233L14.3683 18.6431C13.4956 18.4183 13.043 18.4189 12.2139 18.6461L11.561 18.8251L10.9528 18.6461C10.1722 18.4165 9.65723 18.4115 9.43727 18.6315ZM7.34676 21.2791C7.17232 21.528 7.18596 21.8852 7.37724 22.0765C7.46828 22.1675 7.70401 22.2556 7.93185 22.2837C8.14975 22.3106 8.62384 22.4149 8.98537 22.5156C9.91046 22.7732 11.2983 22.7717 12.0957 22.5122C12.8673 22.2611 13.6993 22.269 14.6095 22.536C15.4108 22.7712 16.4599 22.8095 17.1223 22.6277C17.9181 22.4095 18.2747 22.3297 18.6662 22.2826C19.1351 22.2261 19.3792 22.0169 19.3792 21.6716C19.3792 21.0585 18.6043 20.9189 17.3251 21.3018C16.4066 21.5768 15.6174 21.5764 14.7543 21.3008C14.2502 21.1398 13.9414 21.0964 13.299 21.0964C12.6566 21.0964 12.3478 21.1398 11.8437 21.3008C10.9725 21.579 10.1205 21.579 9.24928 21.3008C8.38384 21.0244 7.53188 21.0147 7.34676 21.2791ZM6.82682 24.8488C6.61434 24.9343 6.47672 25.3369 6.56924 25.6022C6.6689 25.8882 7.31841 26.3669 7.86596 26.5581C8.37899 26.7372 9.33876 26.7203 9.85771 26.5232C10.9818 26.0961 11.4754 25.3262 10.8885 24.9152C10.6138 24.7227 10.3528 24.7712 9.90816 25.0976C9.56956 25.3461 9.40753 25.4077 9.01692 25.4359C8.40438 25.4802 8.23578 25.4341 7.72472 25.0826C7.33328 24.8133 7.0794 24.7472 6.82682 24.8488ZM15.6745 24.9476C15.3683 25.1954 15.4109 25.6593 15.7681 25.9658C16.515 26.6069 17.8042 26.8713 18.6994 26.5671C19.23 26.3868 19.8461 25.9551 19.9866 25.6653C20.299 25.0208 19.5604 24.5159 18.9952 24.9877C18.5956 25.3212 18.2567 25.4511 17.7864 25.4511C17.2487 25.4511 16.9939 25.3637 16.5825 25.0379C16.2277 24.7569 15.9447 24.7287 15.6745 24.9476ZM10.8651 28.3637C10.7718 28.4291 10.6287 28.6602 10.5472 28.8772C10.1083 30.0469 9.50884 30.9708 8.53215 31.9832C8.13973 32.3899 7.79571 32.7877 7.76761 32.8672C7.63516 33.2413 8.09273 33.7194 8.48819 33.6202C8.60848 33.59 8.99358 33.2813 9.34402 32.9341C10.2908 31.9963 11.011 30.9359 11.5435 29.6958C11.8731 28.9283 11.8859 28.714 11.6183 28.4465C11.3905 28.2185 11.1156 28.1883 10.8651 28.3637ZM14.9945 28.4151C14.7026 28.6446 14.7157 28.9058 15.0598 29.7216C15.738 31.3297 17.4112 33.4389 18.1571 33.6262C18.4625 33.7028 18.8314 33.373 18.8314 33.0235C18.8314 32.8088 18.7156 32.6476 18.158 32.0862C17.1786 31.1 16.3488 29.827 16.0155 28.7996C15.8412 28.2621 15.4001 28.0959 14.9945 28.4151ZM11.177 34.1042C10.7866 34.5199 11.0514 35.0119 11.9186 35.482C12.4143 35.7509 12.4728 35.7628 13.299 35.7628C14.1252 35.7628 14.1837 35.7509 14.6795 35.482C15.5526 35.0086 15.8275 34.4855 15.4095 34.0927C15.1393 33.839 14.8954 33.8698 14.3837 34.2222C13.961 34.5133 13.9012 34.5303 13.299 34.5303C12.6968 34.5303 12.637 34.5133 12.2143 34.2222C11.6984 33.8669 11.4288 33.8363 11.177 34.1042Z" fill="white"/>
</svg>
