<svg width="33" height="39" viewBox="0 0 33 39" fill="none" xmlns="http://www.w3.org/2000/svg">
<path fill-rule="evenodd" clip-rule="evenodd" d="M12.6592 0.115549C12.3384 0.273688 12.1037 0.605139 12.0549 0.969072C12.033 1.1327 12.1013 1.66796 12.2139 2.21466C13.1189 6.60657 13.3347 10.8789 12.8255 14.3234C12.6418 15.566 12.2626 16.9225 11.461 19.2033C8.89689 26.5004 7.04932 30.4564 5.94524 31.014C5.7916 31.0916 5.04826 31.3329 4.2934 31.5502C2.55806 32.0499 1.67595 32.4648 1.0527 33.0746C0.235008 33.8748 -0.14265 35.0313 0.0490387 36.1488C0.263144 37.3977 0.888761 38.1113 2.13054 38.523C2.89341 38.7759 3.68105 38.8576 6.27586 38.9526C8.1938 39.0228 8.54531 39.0182 8.92602 38.9172C9.90878 38.6565 10.7645 38.077 11.9455 36.8723C12.9875 35.8093 13.647 34.9929 15.8706 32.013C18.2629 28.8069 19.3932 27.4058 20.458 26.3262C21.8917 24.8728 22.7323 24.344 24.2621 23.9329C27.9183 22.9506 30.1695 21.5407 31.346 19.4963C31.9008 18.5322 32.2195 16.9383 32.1287 15.5815C31.9872 13.4678 31.4943 12.559 29.2044 10.1905C27.4238 8.34861 26.8273 7.49852 26.4316 6.23844C26.2804 5.75663 26.2539 5.51705 26.2595 4.67802C26.2662 3.65789 26.3292 3.28389 26.7208 1.94185C27.0121 0.942995 26.8771 0.404377 26.262 0.112499C25.7156 -0.146745 25.0359 0.0675123 24.7767 0.580663C24.4061 1.31478 24.0067 3.12804 23.9485 4.34123C23.8796 5.77538 24.1061 6.90592 24.702 8.10317C25.3102 9.3252 25.9093 10.0893 27.8283 12.0913C29.5689 13.9071 29.8267 14.4227 29.8204 16.0771C29.8175 16.8459 29.7839 17.1335 29.6466 17.564C29.4335 18.2327 29.3592 18.3763 28.9327 18.9436C28.0724 20.0881 26.5343 20.9044 23.773 21.6818C22.0972 22.1537 21.5032 22.4354 20.4199 23.2718C18.7427 24.5668 17.6083 25.8622 14.3348 30.2212C11.9035 33.4585 10.9819 34.6026 10.0525 35.5373C9.46357 36.1295 9.12373 36.4078 8.81896 36.5473L8.3983 36.7399L6.38398 36.6619C3.20267 36.5388 2.58765 36.4302 2.36058 35.9517C2.17919 35.5695 2.30881 35.0771 2.68647 34.7144C3.05986 34.3557 3.50148 34.1761 5.28661 33.6575C6.8709 33.1972 7.22225 33.0221 7.88553 32.362C9.37367 30.881 10.8923 27.683 13.2108 21.1476C14.7972 16.6758 15.0523 15.6623 15.3175 12.7783C15.4329 11.5237 15.3668 7.85795 15.2038 6.46985C14.9037 3.91477 14.4026 1.09831 14.1647 0.62931C13.8808 0.069876 13.2138 -0.157801 12.6592 0.115549Z" fill="white"/>
</svg>
