<svg width="173" height="42" viewBox="0 0 173 42" fill="none" xmlns="http://www.w3.org/2000/svg">
<path d="M0 0.525879V40.5434H8.37511V27.9253H15.8628C24.2934 27.9253 30.1449 22.4343 30.1449 14.2256C30.1449 5.98911 24.4875 0.525879 16.2788 0.525879H0ZM8.37511 7.15386H14.0602C18.8579 7.15386 21.6311 9.70522 21.6311 14.2533C21.6311 18.8291 18.8301 21.3805 14.0325 21.3805H8.37511V7.15386Z" fill="white"/>
<path d="M43.9555 35.1633C41.21 35.1633 39.3797 33.7767 39.3797 31.5582C39.3797 29.4505 41.0991 28.0916 44.1219 27.8698L50.3893 27.4815V29.6446C50.3893 32.8616 47.4775 35.1633 43.9555 35.1633ZM41.2932 41.0148C45.0093 41.0148 48.6977 39.1568 50.3616 35.9953H50.528V40.5434H58.3485V20.1048C58.3485 14.1146 53.3844 10.1767 45.7581 10.1767C37.8821 10.1767 32.9735 14.1424 32.6685 19.9107H40.073C40.4612 17.7198 42.3747 16.2223 45.3975 16.2223C48.4481 16.2223 50.3893 17.8307 50.3893 20.604V22.5729L42.9017 23.0167C35.4972 23.4604 31.3373 26.5941 31.3373 32.0019C31.3373 37.3542 35.6358 41.0148 41.2932 41.0148Z" fill="white"/>
<path d="M74.6273 41.0148C79.0089 41.0148 82.4477 38.7131 83.8898 35.4407H84.0285V40.5434H92.0153V0.525879H83.9175V15.9172H83.7511C82.3091 12.6171 78.9812 10.3431 74.6827 10.3431C67.2228 10.3431 62.5083 16.1945 62.5083 25.6235C62.5083 35.1356 67.195 41.0148 74.6273 41.0148ZM77.3727 16.8324C81.3939 16.8324 83.973 20.2712 83.973 25.6789C83.973 31.1145 81.3939 34.4978 77.3727 34.4978C73.2961 34.4978 70.8002 31.1422 70.8002 25.6789C70.8002 20.2434 73.2961 16.8324 77.3727 16.8324Z" fill="white"/>
<path d="M97.4231 40.5434H105.521V22.6007C105.521 19.2728 107.601 16.9433 110.679 16.9433C113.674 16.9433 115.477 18.8291 115.477 22.0183V40.5434H123.269V22.4897C123.269 19.1896 125.294 16.9433 128.372 16.9433C131.506 16.9433 133.225 18.8291 133.225 22.2679V40.5434H141.323V20.2434C141.323 14.2533 137.413 10.2599 131.589 10.2599C127.235 10.2599 123.685 12.6171 122.354 16.3609H122.188C121.19 12.4784 118.194 10.2599 113.896 10.2599C109.847 10.2599 106.658 12.6171 105.41 16.1945H105.244V10.8145H97.4231V40.5434Z" fill="white"/>
<path d="M157.935 35.1633C155.189 35.1633 153.359 33.7767 153.359 31.5582C153.359 29.4505 155.078 28.0916 158.101 27.8698L164.369 27.4815V29.6446C164.369 32.8616 161.457 35.1633 157.935 35.1633ZM155.272 41.0148C158.988 41.0148 162.677 39.1568 164.341 35.9953H164.507V40.5434H172.328V20.1048C172.328 14.1146 167.364 10.1767 159.737 10.1767C151.861 10.1767 146.953 14.1424 146.648 19.9107H154.052C154.44 17.7198 156.354 16.2223 159.377 16.2223C162.427 16.2223 164.369 17.8307 164.369 20.604V22.5729L156.881 23.0167C149.476 23.4604 145.317 26.5941 145.317 32.0019C145.317 37.3542 149.615 41.0148 155.272 41.0148Z" fill="white"/>
</svg>
