<svg width="220" height="72" viewBox="0 0 220 72" fill="none" xmlns="http://www.w3.org/2000/svg">
<path d="M207.088 25.8231C214.219 25.8231 220 20.0424 220 12.9115C220 5.7807 214.219 0 207.088 0C199.958 0 194.177 5.7807 194.177 12.9115C194.177 20.0424 199.958 25.8231 207.088 25.8231Z" fill="#246DCE"/>
<path d="M207.088 24.4006C205.994 24.4006 205.119 23.5252 205.119 22.431V2.73543C205.119 1.64123 205.994 0.765869 207.088 0.765869C208.183 0.765869 209.058 1.64123 209.058 2.73543V22.431C209.058 23.5252 208.183 24.4006 207.088 24.4006Z" fill="white"/>
<path d="M218.906 12.5833C218.906 13.6775 218.03 14.5529 216.936 14.5529H197.241C196.146 14.5529 195.271 13.6775 195.271 12.5833C195.271 11.4891 196.146 10.6138 197.241 10.6138H216.936C218.03 10.6138 218.906 11.4891 218.906 12.5833Z" fill="white"/>
<path d="M0 3.87842V47.8977H9.21262V34.0177H17.4491C26.7227 34.0177 33.1593 27.9777 33.1593 18.9481C33.1593 9.88798 26.9362 3.87842 17.9067 3.87842H0ZM9.21262 11.1692H15.4662C20.7437 11.1692 23.7942 13.9757 23.7942 18.9786C23.7942 24.012 20.7132 26.8185 15.4357 26.8185H9.21262V11.1692Z" fill="#246DCE"/>
<path d="M48.351 41.9796C45.331 41.9796 43.3176 40.4544 43.3176 38.0139C43.3176 35.6955 45.209 34.2008 48.5341 33.9567L55.4283 33.5296V35.9091C55.4283 39.4477 52.2252 41.9796 48.351 41.9796ZM45.4225 48.4163C49.5102 48.4163 53.5674 46.3724 55.3978 42.8948H55.5808V47.8977H64.1833V25.4152C64.1833 18.8261 58.7229 14.4943 50.3339 14.4943C41.6703 14.4943 36.2709 18.8566 35.9353 25.2017H44.0803C44.5073 22.7918 46.6122 21.1445 49.9373 21.1445C53.2929 21.1445 55.4283 22.9138 55.4283 25.9643V28.1302L47.1918 28.6183C39.0469 29.1064 34.4711 32.5535 34.4711 38.502C34.4711 44.3896 39.1994 48.4163 45.4225 48.4163Z" fill="#246DCE"/>
<path d="M82.09 48.4163C86.9098 48.4163 90.6925 45.8843 92.2788 42.2847H92.4313V47.8977H101.217V3.87842H92.3093V20.8089H92.1262C90.54 17.1788 86.8793 14.6773 82.151 14.6773C73.945 14.6773 68.7591 21.114 68.7591 31.4858C68.7591 41.9491 73.9145 48.4163 82.09 48.4163ZM85.11 21.8156C89.5333 21.8156 92.3703 25.5982 92.3703 31.5468C92.3703 37.5258 89.5333 41.2475 85.11 41.2475C80.6257 41.2475 77.8802 37.5564 77.8802 31.5468C77.8802 25.5677 80.6257 21.8156 85.11 21.8156Z" fill="#246DCE"/>
<path d="M107.165 47.8977H116.073V28.1607C116.073 24.5001 118.361 21.9376 121.747 21.9376C125.042 21.9376 127.024 24.012 127.024 27.5201V47.8977H135.596V28.0387C135.596 24.4085 137.823 21.9376 141.209 21.9376C144.656 21.9376 146.548 24.012 146.548 27.7946V47.8977H155.455V25.5677C155.455 18.9786 151.154 14.5858 144.748 14.5858C139.959 14.5858 136.054 17.1788 134.59 21.297H134.407C133.309 17.0262 130.014 14.5858 125.286 14.5858C120.832 14.5858 117.324 17.1788 115.951 21.114H115.768V15.1959H107.165V47.8977Z" fill="#246DCE"/>
<path d="M173.728 41.9796C170.708 41.9796 168.695 40.4544 168.695 38.0139C168.695 35.6955 170.586 34.2008 173.911 33.9567L180.805 33.5296V35.9091C180.805 39.4477 177.602 41.9796 173.728 41.9796ZM170.8 48.4163C174.887 48.4163 178.945 46.3724 180.775 42.8948H180.958V47.8977H189.56V25.4152C189.56 18.8261 184.1 14.4943 175.711 14.4943C167.047 14.4943 161.648 18.8566 161.312 25.2017H169.457C169.884 22.7918 171.989 21.1445 175.314 21.1445C178.67 21.1445 180.805 22.9138 180.805 25.9643V28.1302L172.569 28.6183C164.424 29.1064 159.848 32.5535 159.848 38.502C159.848 44.3896 164.577 48.4163 170.8 48.4163Z" fill="#246DCE"/>
<path d="M37.9686 68.9057C40.4014 68.9057 42.0335 67.6931 42.5368 65.5196H41.1488C40.7522 66.8618 39.593 67.6397 37.9763 67.6397C35.8027 67.6397 34.4224 65.9161 34.4224 63.2164C34.4224 60.5396 35.818 58.8008 37.9686 58.8008C39.5397 58.8008 40.798 59.7464 41.1488 61.1878H42.5368C42.186 58.9914 40.3633 57.5348 37.9686 57.5348C34.9562 57.5348 33.0115 59.7617 33.0115 63.2164C33.0115 66.7016 34.9333 68.9057 37.9686 68.9057Z" fill="#246DCE"/>
<path d="M44.5706 68.7226H45.8976V64.1011C45.8976 62.7283 46.7136 61.8284 48.033 61.8284C49.2761 61.8284 49.909 62.5834 49.909 63.8418V68.7226H51.236V63.5977C51.236 61.8284 50.1836 60.654 48.4448 60.654C47.2398 60.654 46.3704 61.1725 45.9281 62.0572H45.8976V57.7178H44.5706V68.7226Z" fill="#246DCE"/>
<path d="M56.0839 67.7312C55.1306 67.7312 54.4977 67.2355 54.4977 66.4805C54.4977 65.7331 55.1078 65.2603 56.1755 65.1916L58.2956 65.062V65.7102C58.2956 66.8542 57.3347 67.7312 56.0839 67.7312ZM55.7865 68.8599C56.8542 68.8599 57.8609 68.265 58.3337 67.3575H58.3642V68.7226H59.6226V63.2393C59.6226 61.6606 58.4481 60.654 56.5873 60.654C54.7112 60.654 53.5367 61.7064 53.4452 63.0791H54.7265C54.8942 62.3012 55.5348 61.8208 56.5568 61.8208C57.655 61.8208 58.2956 62.4004 58.2956 63.3689V64.0324L56.0229 64.1621C54.1926 64.2688 53.1478 65.123 53.1478 66.4805C53.1478 67.9066 54.2079 68.8599 55.7865 68.8599ZM54.0325 57.3594C54.0325 58.7474 54.9781 59.7235 56.4881 59.7235C57.9982 59.7235 58.9438 58.7474 58.9438 57.3594H57.9829C57.9829 58.2898 57.3575 58.8999 56.4881 58.8999C55.6187 58.8999 54.9934 58.2898 54.9934 57.3594H54.0325Z" fill="#246DCE"/>
<path d="M61.8546 68.7226H63.1816V63.7503C63.1816 62.6521 63.9443 61.8284 64.9967 61.8284C65.9805 61.8284 66.6211 62.4538 66.6211 63.4071V68.7226H67.9481V63.6816C67.9481 62.6063 68.6879 61.8284 69.7403 61.8284C70.7851 61.8284 71.3876 62.469 71.3876 63.552V68.7226H72.7146V63.2469C72.7146 61.6759 71.7003 60.654 70.1292 60.654C69.0158 60.654 68.0854 61.2183 67.643 62.164H67.6125C67.2694 61.2031 66.4686 60.654 65.3856 60.654C64.318 60.654 63.5096 61.2183 63.1359 62.0572H63.1054V60.7912H61.8546V68.7226Z" fill="#246DCE"/>
<path d="M78.5667 62.98C78.5667 64.0629 79.2531 64.7798 80.6487 65.1382L82.0443 65.4967C82.9366 65.7331 83.2645 66.0382 83.2645 66.6025C83.2645 67.3194 82.601 67.777 81.5257 67.777C80.4504 67.777 79.8251 67.3346 79.6802 66.511H78.3532C78.4904 67.9142 79.703 68.8599 81.4418 68.8599C83.295 68.8599 84.5991 67.8837 84.5991 66.5034C84.5991 65.3365 84.0195 64.7569 82.418 64.3527L81.1902 64.0553C80.2903 63.8265 79.8708 63.4605 79.8708 62.9114C79.8708 62.2174 80.5114 61.7369 81.48 61.7369C82.4561 61.7369 83.0739 62.2097 83.1654 62.9724H84.4314C84.3704 61.6301 83.1654 60.654 81.5257 60.654C79.7793 60.654 78.5667 61.6225 78.5667 62.98Z" fill="#246DCE"/>
<path d="M89.8131 68.8599C92.0019 68.8599 93.4814 67.2812 93.4814 64.7569C93.4814 62.225 92.0019 60.654 89.8131 60.654C87.6167 60.654 86.1372 62.225 86.1372 64.7569C86.1372 67.2812 87.6167 68.8599 89.8131 68.8599ZM89.8131 67.6931C88.4099 67.6931 87.4871 66.6254 87.4871 64.7569C87.4871 62.8885 88.4099 61.8208 89.8131 61.8208C91.2164 61.8208 92.1315 62.8885 92.1315 64.7569C92.1315 66.6254 91.2164 67.6931 89.8131 67.6931ZM90.4156 59.6473L92.2917 57.3594H90.8579L89.2564 59.6473H90.4156Z" fill="#246DCE"/>
<path d="M101.959 63.3918C101.792 61.9657 100.61 60.654 98.6267 60.654C96.438 60.654 94.9813 62.2555 94.9813 64.7569C94.9813 67.3118 96.4456 68.8599 98.642 68.8599C100.442 68.8599 101.769 67.7465 101.975 66.1678H100.671C100.442 67.1211 99.7326 67.6931 98.6496 67.6931C97.2769 67.6931 96.3312 66.6025 96.3312 64.7569C96.3312 62.9571 97.2616 61.8208 98.6344 61.8208C99.8012 61.8208 100.472 62.53 100.663 63.3918H101.959Z" fill="#246DCE"/>
<path d="M110.496 68.8599C111.64 68.8599 112.548 68.2956 113.059 67.3804H113.081V68.7226H114.347V57.7178H113.02V62.0801H112.99C112.517 61.2107 111.602 60.654 110.466 60.654C108.467 60.654 107.102 62.2707 107.102 64.7569C107.102 67.2431 108.475 68.8599 110.496 68.8599ZM110.748 61.8208C112.113 61.8208 113.028 62.9876 113.028 64.7569C113.028 66.5339 112.113 67.6931 110.748 67.6931C109.344 67.6931 108.46 66.5567 108.46 64.7569C108.46 62.9647 109.344 61.8208 110.748 61.8208Z" fill="#246DCE"/>
<path d="M119.302 67.7312C118.349 67.7312 117.716 67.2355 117.716 66.4805C117.716 65.7331 118.326 65.2603 119.394 65.1916L121.514 65.062V65.7102C121.514 66.8542 120.553 67.7312 119.302 67.7312ZM119.005 68.8599C120.072 68.8599 121.079 68.265 121.552 67.3575H121.582V68.7226H122.841V63.2393C122.841 61.6606 121.666 60.654 119.805 60.654C117.929 60.654 116.755 61.7064 116.663 63.0791H117.945C118.112 62.3012 118.753 61.8208 119.775 61.8208C120.873 61.8208 121.514 62.4004 121.514 63.3689V64.0324L119.241 64.1621C117.411 64.2688 116.366 65.123 116.366 66.4805C116.366 67.9066 117.426 68.8599 119.005 68.8599Z" fill="#246DCE"/>
<path d="M135.412 63.3918C135.244 61.9657 134.062 60.654 132.079 60.654C129.89 60.654 128.434 62.2555 128.434 64.7569C128.434 67.3118 129.898 68.8599 132.094 68.8599C133.894 68.8599 135.221 67.7465 135.427 66.1678H134.123C133.894 67.1211 133.185 67.6931 132.102 67.6931C130.729 67.6931 129.783 66.6025 129.783 64.7569C129.783 62.9571 130.714 61.8208 132.087 61.8208C133.253 61.8208 133.925 62.53 134.115 63.3918H135.412Z" fill="#246DCE"/>
<path d="M143.707 60.7912H142.38V65.4509C142.38 66.8008 141.602 67.6854 140.313 67.6854C139.085 67.6854 138.483 66.9914 138.483 65.7026V60.7912H137.156V65.939C137.156 67.7388 138.17 68.8599 139.901 68.8599C141.121 68.8599 141.945 68.3489 142.418 67.4338H142.448V68.7226H143.707V60.7912ZM140.915 59.6473L139.314 57.3594H137.88L139.756 59.6473H140.915Z" fill="#246DCE"/>
<path d="M145.977 68.7226H147.304V64.0553C147.304 62.7131 148.12 61.8284 149.371 61.8284C150.591 61.8284 151.193 62.53 151.193 63.8113V68.7226H152.52V63.5748C152.52 61.775 151.514 60.654 149.775 60.654C148.547 60.654 147.7 61.2031 147.258 62.0572H147.228V60.7912H145.977V68.7226Z" fill="#246DCE"/>
<path d="M157.986 67.6168C156.621 67.6168 155.729 66.5034 155.729 64.7264C155.729 62.9495 156.621 61.8208 157.986 61.8208C159.366 61.8208 160.289 62.98 160.289 64.7264C160.289 66.4729 159.366 67.6168 157.986 67.6168ZM158.032 71.7122C160.22 71.7122 161.616 70.4538 161.616 68.5625V60.7912H160.35V62.1258H160.327C159.801 61.2031 158.871 60.654 157.75 60.654C155.698 60.654 154.371 62.2402 154.371 64.7264C154.371 67.1897 155.698 68.7836 157.719 68.7836C158.832 68.7836 159.771 68.2193 160.259 67.3575H160.289V68.6082C160.289 69.7903 159.458 70.5835 158.085 70.5835C157.094 70.5835 156.308 70.103 156.049 69.3785H154.684C154.905 70.7284 156.285 71.7122 158.032 71.7122Z" fill="#246DCE"/>
<path d="M171.586 68.8599C173.615 68.8599 174.957 67.2507 174.957 64.7569C174.957 62.2707 173.607 60.654 171.609 60.654C170.488 60.654 169.565 61.2107 169.07 62.1182H169.039V57.7178H167.712V68.7226H168.978V67.3804H169.009C169.52 68.2956 170.427 68.8599 171.586 68.8599ZM171.327 61.8208C172.73 61.8208 173.6 62.9571 173.6 64.7569C173.6 66.572 172.73 67.6931 171.327 67.6931C169.985 67.6931 169.032 66.5262 169.032 64.7569C169.032 62.9952 169.985 61.8208 171.327 61.8208Z" fill="#246DCE"/>
<path d="M179.47 67.7312C178.516 67.7312 177.883 67.2355 177.883 66.4805C177.883 65.7331 178.493 65.2603 179.561 65.1916L181.681 65.062V65.7102C181.681 66.8542 180.72 67.7312 179.47 67.7312ZM179.172 68.8599C180.24 68.8599 181.247 68.265 181.719 67.3575H181.75V68.7226H183.008V63.2393C183.008 61.6606 181.834 60.654 179.973 60.654C178.097 60.654 176.922 61.7064 176.831 63.0791H178.112C178.28 62.3012 178.921 61.8208 179.942 61.8208C181.041 61.8208 181.681 62.4004 181.681 63.3689V64.0324L179.409 64.1621C177.578 64.2688 176.534 65.123 176.534 66.4805C176.534 67.9066 177.594 68.8599 179.172 68.8599ZM179.775 71.6893C180.286 71.6893 180.697 71.2775 180.697 70.7665C180.697 70.2555 180.286 69.8437 179.775 69.8437C179.264 69.8437 178.852 70.2555 178.852 70.7665C178.852 71.2775 179.264 71.6893 179.775 71.6893Z" fill="#246DCE"/>
<path d="M185.24 68.7226H186.567V64.0553C186.567 62.7131 187.383 61.8284 188.634 61.8284C189.854 61.8284 190.457 62.53 190.457 63.8113V68.7226H191.784V63.5748C191.784 61.775 190.777 60.654 189.038 60.654C187.81 60.654 186.964 61.2031 186.522 62.0572H186.491V60.7912H185.24V68.7226Z" fill="#246DCE"/>
</svg>
