<svg width="24" height="34" viewBox="0 0 24 34" fill="none" xmlns="http://www.w3.org/2000/svg">
<path d="M21.5385 0H2.46154C1.80892 0.000674931 1.18325 0.2397 0.721778 0.664637C0.260309 1.08957 0.000732956 1.66572 0 2.26667V31.7333C0.000732956 32.3343 0.260309 32.9104 0.721778 33.3354C1.18325 33.7603 1.80892 33.9993 2.46154 34H21.5385C22.1911 33.9993 22.8168 33.7603 23.2782 33.3354C23.7397 32.9104 23.9993 32.3343 24 31.7333V2.26667C23.9993 1.66572 23.7397 1.08957 23.2782 0.664637C22.8168 0.2397 22.1911 0.000674931 21.5385 0ZM21.5385 2.26667V4.53333H2.46154V2.26667H21.5385ZM21.5385 6.8L21.5393 22.6667H2.46154V6.8H21.5385ZM21.5385 31.7333H2.46154V24.9333H21.5397V31.7333H21.5385Z" fill="#246DCE"/>
</svg>
