<svg width="18" height="18" viewBox="0 0 18 18" fill="none" xmlns="http://www.w3.org/2000/svg">
<path d="M8.16665 15.4999C9.79371 15.4996 11.3739 14.9549 12.6556 13.9526L16.6852 17.9823L17.9814 16.6861L13.9517 12.6564C14.9546 11.3746 15.4996 9.79407 15.5 8.16658C15.5 4.12317 12.2101 0.833252 8.16665 0.833252C4.12323 0.833252 0.833313 4.12317 0.833313 8.16658C0.833313 12.21 4.12323 15.4999 8.16665 15.4999ZM8.16665 2.66659C11.1999 2.66659 13.6666 5.13333 13.6666 8.16658C13.6666 11.1998 11.1999 13.6666 8.16665 13.6666C5.1334 13.6666 2.66665 11.1998 2.66665 8.16658C2.66665 5.13333 5.1334 2.66659 8.16665 2.66659Z" fill="white"/>
</svg>
